<svg width="34" height="54" viewBox="0 0 34 54" fill="none" xmlns="http://www.w3.org/2000/svg">
<path d="M20.0863 37.7443C20.0863 37.7443 28.5697 27.9823 31.7734 18.2131C34.9771 8.44387 33.4543 9.59319 33.4543 9.59319C33.4543 9.59319 29.1444 19.0751 25.8544 23.658C22.5645 28.2409 16.7245 34.9644 16.7245 34.9644L20.0863 37.7443Z" fill="#455A64"/>
<path d="M18.3695 11.0873C18.4272 10.9882 18.5175 10.9122 18.625 10.8722C18.7324 10.8322 18.8505 10.8307 18.9589 10.868C19.0674 10.9053 19.1595 10.979 19.2197 11.0766C19.2799 11.1743 19.3044 11.2897 19.2889 11.4034C18.7717 14.837 17.6512 22.8966 17.6943 28.1044C17.7517 34.8854 17.6943 37.5073 17.6943 37.5073H14.1601C14.1601 37.5073 14.7922 23.4856 15.5968 19.2116C16.1185 16.3824 17.0526 13.6451 18.3695 11.0873Z" fill="#455A64"/>
<path d="M16.4731 36.3723C14.9911 33.0191 14.0109 29.466 13.5639 25.8273C13.2766 23.3276 13.7938 19.9514 14.5624 15.4547C14.861 13.7952 15.0124 12.1126 15.0149 10.4265C15.0109 10.2404 14.9458 10.0609 14.8297 9.91549C14.7135 9.77012 14.5528 9.66701 14.3722 9.62207C14.1916 9.57713 14.0013 9.59287 13.8305 9.66684C13.6598 9.74081 13.5181 9.8689 13.4274 10.0314C12.573 11.6078 11.9122 13.2816 11.4592 15.0165C10.6044 19.463 9.63466 21.6826 10.3745 25.9063C11.1144 30.1301 13.8512 36.6165 13.8512 36.6165L16.4731 36.3723Z" fill="#455A64"/>
<path d="M13.2909 36.6525C13.2909 36.6525 3.95273 16.6328 3.32778 13.6661C2.70284 10.6994 0.490405 3.84658 0.231808 4.23448C-0.0267884 4.62237 -0.414682 8.24273 1.2662 12.3731C2.94708 16.5035 10.1088 37.263 10.1088 37.263H13.2909" fill="#455A64"/>
<path d="M17.4931 35.7617C17.4931 35.7617 17.5865 35.7043 17.7517 35.5822C17.917 35.4601 18.1684 35.2805 18.4701 35.0291C19.3397 34.3338 20.174 33.5954 20.9698 32.8166C23.5853 30.2337 25.8506 27.3188 27.7077 24.1464C29.5741 20.9763 31.1282 17.6324 32.3481 14.1617C32.8222 12.8328 33.1598 11.7482 33.3825 10.9867C33.4974 10.6132 33.5764 10.3187 33.6267 10.1176C33.662 10.0176 33.6861 9.91398 33.6985 9.80869C33.6985 9.80869 33.6554 9.90926 33.5908 10.1032L33.3106 10.9652C33.0664 11.6835 32.7001 12.7969 32.2188 14.1186C30.9713 17.5643 29.4133 20.8894 27.564 24.0531C25.7097 27.2159 23.4626 30.1315 20.8764 32.7304C19.8851 33.7217 19.0303 34.4759 18.4269 34.986L17.7086 35.5606C17.6311 35.6212 17.559 35.6886 17.4931 35.7617Z" fill="#263238"/>
<path d="M16.4731 26.1577C16.5189 25.9643 16.5478 25.7672 16.5593 25.5687C16.6024 25.1521 16.6599 24.6134 16.7245 23.9597C16.8754 22.6092 17.1052 20.7416 17.4428 18.6872C17.7805 16.6328 18.1612 14.7867 18.4269 13.4578L18.7646 11.8775C18.8164 11.6871 18.8501 11.4923 18.8651 11.2956C18.7948 11.4813 18.7349 11.6708 18.6856 11.8631C18.585 12.2294 18.4485 12.761 18.2833 13.429C17.9672 14.7508 17.565 16.5968 17.2489 18.6584C16.9328 20.72 16.7102 22.5877 16.5952 23.9453C16.5378 24.6277 16.5019 25.1808 16.4875 25.5615C16.4625 25.7593 16.4577 25.959 16.4731 26.1577Z" fill="#263238"/>
<path d="M14.2894 9.90926C14.2463 9.98977 14.2102 10.0739 14.1817 10.1607L13.9015 10.879C13.7794 11.2022 13.6357 11.5973 13.4992 12.0714C13.3628 12.5455 13.1832 13.0699 13.0467 13.6733C12.9749 13.975 12.8958 14.291 12.8168 14.6143C12.7378 14.9375 12.6875 15.2895 12.6157 15.6487C12.4577 16.367 12.3643 17.1284 12.2565 17.9329C12.0513 19.6945 11.9769 21.4688 12.0338 23.2414C12.1039 25.0154 12.3008 26.7822 12.6229 28.5282C12.7953 29.3256 12.9461 30.087 13.1473 30.7838C13.2478 31.1357 13.3268 31.5021 13.4274 31.7966L13.7219 32.7232C13.9015 33.3123 14.117 33.8295 14.2894 34.2892C14.4618 34.7489 14.627 35.1368 14.7779 35.4457L15.1083 36.164C15.1434 36.2494 15.1867 36.3312 15.2376 36.4082C15.2376 36.4082 15.2376 36.3149 15.1442 36.1425C15.0508 35.9701 14.9718 35.7115 14.8425 35.4241C14.7132 35.1368 14.5552 34.7058 14.3971 34.2533C14.2391 33.8007 14.0236 33.2763 13.8584 32.6873L13.5711 31.7607C13.4777 31.4446 13.3987 31.0998 13.3053 30.7478C13.1114 30.0295 12.9677 29.3112 12.8025 28.4995C12.4943 26.7637 12.2999 25.0097 12.2206 23.2485C12.17 21.4859 12.2396 19.722 12.4289 17.9689C12.5367 17.1643 12.6229 16.3957 12.7666 15.6918C12.8384 15.3326 12.8887 14.9734 12.9605 14.6646C13.0323 14.3557 13.1113 14.0181 13.176 13.7236C13.3053 13.1202 13.4705 12.5886 13.5998 12.1145C13.7291 11.6404 13.8584 11.2453 13.9661 10.9149L14.2104 10.1607C14.2468 10.0804 14.2733 9.99594 14.2894 9.90926Z" fill="#263238"/>
<path d="M0.339538 4.63675C0.339538 4.63675 0.339538 4.63674 0.339538 4.73012V4.98872C0.382637 5.21859 0.432927 5.5562 0.526309 5.98719C0.70589 6.84918 1.00759 8.0847 1.4745 9.57881C1.94141 11.0729 2.57353 12.84 3.32777 14.7795C4.08201 16.719 4.95119 18.8308 5.77726 21.0792C6.60333 23.3275 7.2642 25.5113 7.87478 27.501C8.48535 29.4908 9.04564 31.2722 9.59875 32.752C10.0146 33.9172 10.4942 35.0586 11.0354 36.1712C11.2222 36.5663 11.3946 36.8895 11.5095 37.0691L11.6388 37.299C11.6526 37.3248 11.6695 37.3489 11.6891 37.3708C11.6799 37.341 11.6679 37.3121 11.6531 37.2846L11.5454 37.0475C11.4448 36.8392 11.2868 36.5375 11.1072 36.1425C10.5693 35.0211 10.0898 33.8726 9.67059 32.7017C9.13184 31.2219 8.57873 29.4405 7.98252 27.4507C7.38631 25.461 6.73982 23.2629 5.89938 20.9858C5.05894 18.7087 4.18975 16.6256 3.43551 14.6933C2.68127 12.761 1.99888 11.0083 1.53915 9.51417C1.07942 8.02005 0.741814 6.78453 0.5335 5.92255C0.432934 5.49873 0.368272 5.16113 0.317989 4.93844L0.253343 4.67985L0.339538 4.63675Z" fill="#263238"/>
<path d="M29.0653 0.21905C29.1944 0.0974396 29.36 0.0218654 29.5364 0.00406548C29.7128 -0.0137344 29.8901 0.0272391 30.0409 0.120622C30.1916 0.214005 30.3072 0.354562 30.3698 0.520449C30.4324 0.686336 30.4385 0.868258 30.3871 1.03794C30.0627 2.06562 29.6716 3.07102 29.2162 4.04772C27.9304 6.77017 24.1879 16.5322 22.4065 21.8981C20.625 27.264 18.1684 37.263 18.1684 37.263L14.4043 36.6525C14.4043 36.6525 17.8451 20.2172 21.2069 14.291C23.9078 9.52853 26.6087 2.66854 29.0653 0.21905Z" fill="#455A64"/>
<path d="M21.3793 25.2527C21.298 25.3933 21.233 25.5427 21.1853 25.698C21.0776 25.9925 20.9267 26.4163 20.7543 26.9623C20.4095 28.0326 19.9857 29.5339 19.5547 31.2004C19.1237 32.8669 18.7717 34.3754 18.5275 35.4744C18.4126 35.9988 18.3192 36.4298 18.2474 36.7818C18.2029 36.9387 18.1764 37.1001 18.1684 37.263C18.2362 37.1137 18.2869 36.957 18.3192 36.7961C18.4126 36.4585 18.5275 36.0203 18.664 35.5103L19.7487 31.2507C20.1725 29.5841 20.5747 28.0829 20.8908 27.0054C21.0345 26.4954 21.1638 26.0644 21.2571 25.7268C21.3162 25.574 21.3572 25.4149 21.3793 25.2527Z" fill="#263238"/>
<path d="M16.2792 36.9613V36.8608L16.3223 36.5663C16.3582 36.3005 16.3941 35.9198 16.4731 35.4241C16.6096 34.4328 16.861 33.0106 17.2633 31.2794C17.7428 29.2455 18.3303 27.2385 19.0232 25.267C19.7918 23.0402 20.7615 20.6338 21.8605 18.1412C24.073 13.1633 26.2782 8.75275 27.7293 5.48437C28.4476 3.86096 29.0366 2.53206 29.4101 1.60542C29.5969 1.13851 29.7334 0.779347 29.8339 0.535117C29.877 0.420185 29.9058 0.326803 29.9345 0.254971C29.9632 0.183138 29.9704 0.154406 29.9345 0.154406L29.8914 0.247791C29.8555 0.319624 29.8196 0.405815 29.7693 0.520747C29.6544 0.772161 29.5035 1.12414 29.3096 1.56951C28.9145 2.48896 28.3255 3.81067 27.5784 5.4269C26.0915 8.67373 23.8647 13.0771 21.645 18.0622C20.546 20.5548 19.5835 22.9684 18.822 25.2096C18.1325 27.1863 17.5569 29.2009 17.0981 31.2435C16.7887 32.6217 16.5489 34.0146 16.3797 35.4169C16.3151 35.9054 16.2935 36.3005 16.2648 36.5591V36.8536C16.2696 36.9254 16.2744 36.9613 16.2792 36.9613Z" fill="#263238"/>
<path d="M14.4043 36.6525C14.4648 36.4457 14.5081 36.2343 14.5336 36.0203C14.6055 35.5822 14.706 35.0003 14.8282 34.2964C15.0867 32.8597 15.4818 30.8269 16.0493 28.6432C16.6168 26.4595 17.2489 24.5128 17.7374 23.1192C17.9744 22.444 18.1755 21.8909 18.3264 21.4671C18.4074 21.2691 18.4722 21.0649 18.5203 20.8565C18.4176 21.0437 18.3287 21.2382 18.2546 21.4384C18.0893 21.8191 17.8595 22.3722 17.6009 23.069C16.9257 24.8795 16.3431 26.7232 15.8554 28.5929C15.2879 30.7478 14.9143 32.8023 14.6845 34.2676C14.5767 34.986 14.4977 35.5965 14.4546 36.0132C14.4215 36.2247 14.4047 36.4384 14.4043 36.6525Z" fill="#263238"/>
<path d="M6.68953 54H21.3649L21.3649 36.1137L6.68953 36.1137L6.68953 54Z" fill="#FED36A"/>
<g opacity="0.3">
<path d="M6.68953 54H21.3649L21.3649 36.1137L6.68953 36.1137L6.68953 54Z" fill="black"/>
</g>
<path d="M11.3658 54H24.389L24.389 36.1137H11.3658L11.3658 54Z" fill="#FED36A"/>
</svg>
