<svg width="35" height="42" viewBox="0 0 35 42" fill="none" xmlns="http://www.w3.org/2000/svg">
<path d="M21.8678 41.7694L1.6461 33.2237C0.985251 32.9339 0.464732 32.3961 0.196741 31.7261C-0.0712497 31.0561 -0.0652494 30.3077 0.213464 29.6421L12.0757 1.64828C12.364 0.986172 12.9017 0.464425 13.5722 0.196225C14.2427 -0.071975 14.9919 -0.0649978 15.6573 0.215645L28.4866 5.64535L34.0739 20.0864L25.4781 40.3797C25.1805 41.04 24.6344 41.5562 23.9585 41.8164C23.2826 42.0766 22.5313 42.0597 21.8678 41.7694Z" fill="#FED36A"/>
<path d="M28.4795 5.5737L25.1414 13.4532C25.0093 13.7621 24.9396 14.0941 24.9361 14.43C24.9327 14.766 24.9958 15.0993 25.1216 15.4108C25.2474 15.7223 25.4335 16.0059 25.6692 16.2453C25.905 16.4846 26.1857 16.6751 26.4953 16.8056L34.0668 20.0147L28.4795 5.5737Z" fill="#FED36A"/>
<g opacity="0.2">
<path d="M24.948 14.191C24.7052 14.7902 24.6721 15.4538 24.8542 16.0742C25.0362 16.6945 25.4227 17.235 25.9508 17.6079C26.0218 17.6668 26.096 17.7218 26.1729 17.7726C27.0898 18.3672 33.1069 22.2854 33.1714 22.135L34.0668 19.9861L26.4953 16.7769C26.4953 16.7769 24.6185 15.9389 24.948 14.191Z" fill="black"/>
</g>
<g opacity="0.3">
<path d="M28.4795 5.5737L25.1414 13.4532C25.0093 13.7621 24.9396 14.0941 24.9361 14.43C24.9327 14.766 24.9958 15.0993 25.1216 15.4108C25.2474 15.7223 25.4335 16.0059 25.6692 16.2453C25.905 16.4846 26.1857 16.6751 26.4953 16.8056L34.0668 20.0147L28.4795 5.5737Z" fill="white"/>
</g>
<path d="M23.5798 12.4504C21.9499 11.9759 20.3597 11.3748 18.8235 10.6524C17.2362 10.0532 15.6965 9.3348 14.2175 8.50345C15.8513 8.97333 17.4443 9.57461 18.9811 10.3014C20.568 10.8961 22.1056 11.6146 23.5798 12.4504Z" fill="#FAFAFA"/>
<path d="M27.7345 19.4273C27.6915 19.5276 24.2102 18.1523 19.9553 16.3472C15.7003 14.542 12.2906 13.0091 12.3336 12.9017C12.3766 12.7942 15.8579 14.1839 20.1128 15.9818C24.3678 17.7798 27.7775 19.327 27.7345 19.4273Z" fill="#FAFAFA"/>
<path d="M27.5482 23.7396C27.5053 23.8399 23.7088 22.307 19.0742 20.3657C14.4396 18.4245 10.7147 16.7483 10.7577 16.6265C10.8007 16.5048 14.59 18.0592 19.2318 20.0004C23.8735 21.9416 27.5912 23.6321 27.5482 23.7396Z" fill="#FAFAFA"/>
<path d="M26.0511 27.2496C26.0082 27.3498 22.2188 25.8169 17.5842 23.8757C12.9496 21.9345 9.22478 20.2368 9.2606 20.1365C9.29641 20.0362 13.1001 21.5691 17.7347 23.5104C22.3693 25.4516 26.1013 27.1421 26.0511 27.2496Z" fill="#FAFAFA"/>
<path d="M24.5755 30.7523C24.5325 30.8598 20.736 29.3197 16.1014 27.3856C11.4669 25.4516 7.742 23.7467 7.78498 23.6464C7.82796 23.5462 11.6173 25.0791 16.259 27.0203C20.9008 28.9615 24.6185 30.6521 24.5755 30.7523Z" fill="#FAFAFA"/>
<path d="M23.0856 34.2623C23.0426 34.3698 19.2461 32.8297 14.6115 30.8956C9.97692 28.9615 6.25207 27.2567 6.29505 27.1564C6.33803 27.0561 10.1345 28.5891 14.7691 30.5231C19.4037 32.4572 23.1285 34.162 23.0856 34.2623Z" fill="#FAFAFA"/>
</svg>
