<svg width="92" height="60" viewBox="0 0 92 60" fill="none" xmlns="http://www.w3.org/2000/svg">
<g opacity="0.3">
<path d="M74.1311 22.7357C76.9646 22.4259 79.0104 19.8777 78.7006 17.0443C78.3908 14.2108 75.8426 12.1649 73.0091 12.4748C70.1757 12.7846 68.1298 15.3327 68.4396 18.1662C68.7495 20.9997 71.2976 23.0455 74.1311 22.7357Z" stroke="#EB996E" stroke-width="0.561983" stroke-linecap="round" stroke-linejoin="round"/>
<path d="M77.4443 19.6994C78.5988 17.5616 77.8016 14.8927 75.6639 13.7383C73.5261 12.5838 70.8572 13.381 69.7027 15.5187C68.5483 17.6565 69.3454 20.3254 71.4832 21.4799C73.621 22.6343 76.2899 21.8372 77.4443 19.6994Z" stroke="#EB996E" stroke-width="0.561983" stroke-linecap="round" stroke-linejoin="round"/>
<path d="M75.4438 18.4885C75.4438 17.0091 73.3456 16.9758 73.3456 16.3583C73.3456 16.0335 73.5163 15.935 73.866 15.935C74.1671 15.935 74.4211 16.0655 74.7111 16.3264L75.405 15.5284C75.0847 15.1696 74.6523 14.9299 74.1782 14.8484V14.0158H73.2637V14.872C72.4796 15.0413 72.0147 15.6006 72.0147 16.4235C72.0147 17.8459 74.1144 17.9361 74.1144 18.587C74.1144 18.9034 73.9506 19.0422 73.544 19.0422C73.2026 19.0422 72.8612 18.9117 72.4213 18.587L71.8204 19.5307C72.233 19.8715 72.736 20.0847 73.2679 20.1441V20.9614H74.1796V20.0872C75.0247 19.8859 75.4438 19.2726 75.4438 18.4885Z" stroke="#EB996E" stroke-width="0.561983" stroke-linecap="round" stroke-linejoin="round"/>
</g>
<g opacity="0.3">
<path d="M76.6456 47.3786C77.9455 47.3786 78.9993 46.3249 78.9993 45.025C78.9993 43.7251 77.9455 42.6714 76.6456 42.6714C75.3458 42.6714 74.292 43.7251 74.292 45.025C74.292 46.3249 75.3458 47.3786 76.6456 47.3786Z" stroke="#EB996E" stroke-width="0.561983" stroke-linecap="round" stroke-linejoin="round"/>
<path d="M78.0639 46.4442C78.8476 45.6606 78.8476 44.39 78.0639 43.6063C77.2802 42.8227 76.0097 42.8227 75.226 43.6063C74.4424 44.39 74.4424 45.6606 75.226 46.4442C76.0097 47.2279 77.2802 47.2279 78.0639 46.4442Z" stroke="#EB996E" stroke-width="0.561983" stroke-linecap="round" stroke-linejoin="round"/>
<path d="M77.4991 45.4275C77.4991 44.753 76.5415 44.7336 76.5415 44.4561C76.5415 44.3076 76.6192 44.2632 76.7788 44.2632C76.9259 44.2706 77.0645 44.3342 77.166 44.4408L77.481 44.0772C77.3355 43.915 77.1403 43.8056 76.9259 43.7664V43.3875H76.5096V43.7775C76.3409 43.8019 76.1876 43.8887 76.0799 44.0208C75.9722 44.1529 75.918 44.3206 75.9281 44.4908C75.9281 45.1402 76.8857 45.1846 76.8857 45.4775C76.8857 45.6232 76.8108 45.6856 76.6262 45.6856C76.4371 45.6753 76.2568 45.602 76.1141 45.4775L75.8366 45.909C76.0249 46.0641 76.2545 46.1606 76.4971 46.1866V46.5599H76.9134V46.1561C77.0832 46.1271 77.2365 46.037 77.3444 45.9028C77.4523 45.7686 77.5073 45.5995 77.4991 45.4275Z" stroke="#EB996E" stroke-width="0.561983" stroke-linecap="round" stroke-linejoin="round"/>
</g>
<g opacity="0.3">
<path d="M34.3635 7.62597C36.3782 7.30364 37.75 5.40917 37.4277 3.39454C37.1054 1.37992 35.2109 0.00804541 33.1963 0.330375C31.1816 0.652705 29.8098 2.54718 30.1321 4.5618C30.4544 6.57642 32.3489 7.9483 34.3635 7.62597Z" stroke="#EB996E" stroke-width="0.561983" stroke-linecap="round" stroke-linejoin="round"/>
<path d="M36.4389 5.66785C37.3705 4.19937 36.9352 2.25375 35.4668 1.32218C33.9983 0.390612 32.0527 0.825867 31.1211 2.29435C30.1895 3.76283 30.6248 5.70845 32.0933 6.64002C33.5617 7.57158 35.5074 7.13633 36.4389 5.66785Z" stroke="#EB996E" stroke-width="0.561983" stroke-linecap="round" stroke-linejoin="round"/>
<path d="M35.1185 4.61236C35.1185 3.5535 33.617 3.52991 33.617 3.08583C33.617 2.85408 33.7391 2.7833 33.9903 2.7833C34.2204 2.79374 34.4374 2.89327 34.5954 3.06085L35.0894 2.49049C34.8601 2.23316 34.5505 2.06099 34.2109 2.002V1.41082H33.5587V2.02559C33.2986 2.06736 33.0631 2.20386 32.8976 2.40882C32.7321 2.61378 32.6483 2.87272 32.6622 3.13579C32.6622 4.1544 34.1638 4.21824 34.1638 4.68452C34.1638 4.91072 34.0486 5.01064 33.7572 5.01064C33.5129 5.01064 33.2673 4.91766 32.9536 4.68452L32.5234 5.35619C32.8179 5.60121 33.1779 5.7542 33.5587 5.79611V6.38313H34.2109V5.75725C34.4751 5.70853 34.7127 5.56566 34.8796 5.35513C35.0465 5.14461 35.1314 4.8807 35.1185 4.61236Z" stroke="#EB996E" stroke-width="0.561983" stroke-linecap="round" stroke-linejoin="round"/>
</g>
<g opacity="0.3">
<path d="M4.89418 47.9982C6.17726 47.7899 7.04856 46.5809 6.84029 45.2979C6.63202 44.0148 5.42304 43.1435 4.13996 43.3517C2.85688 43.56 1.98558 44.769 2.19386 46.0521C2.40213 47.3352 3.61111 48.2065 4.89418 47.9982Z" stroke="#EB996E" stroke-width="0.561983" stroke-linecap="round" stroke-linejoin="round"/>
<path d="M6.52114 45.6759C6.52114 45.279 6.40345 44.891 6.18295 44.561C5.96245 44.231 5.64905 43.9738 5.28238 43.822C4.9157 43.6701 4.51223 43.6303 4.12297 43.7078C3.73371 43.7852 3.37615 43.9763 3.09551 44.257C2.81487 44.5376 2.62375 44.8951 2.54632 45.2844C2.46889 45.6737 2.50863 46.0771 2.66052 46.4438C2.8124 46.8105 3.0696 47.1239 3.3996 47.3444C3.7296 47.5649 4.11757 47.6826 4.51445 47.6826C5.04666 47.6826 5.55707 47.4712 5.93339 47.0948C6.30972 46.7185 6.52114 46.2081 6.52114 45.6759V45.6759Z" stroke="#EB996E" stroke-width="0.561983" stroke-linecap="round" stroke-linejoin="round"/>
<path d="M5.36792 46.0797C5.36792 45.4039 4.41176 45.3858 4.41176 45.1083C4.41176 44.9598 4.48948 44.9154 4.64907 44.9154C4.79577 44.9226 4.93401 44.9862 5.03486 45.093L5.34988 44.7294C5.20478 44.5669 5.00928 44.4579 4.79478 44.42V44.0397H4.37846V44.4311C4.21242 44.4573 4.06203 44.5442 3.9564 44.6749C3.85077 44.8057 3.79743 44.971 3.8067 45.1388C3.8067 45.7869 4.76425 45.8327 4.76425 46.1255C4.76425 46.2643 4.6907 46.3323 4.50474 46.3323C4.31578 46.3223 4.13555 46.2495 3.99266 46.1255L3.71511 46.5557C3.90389 46.7101 4.13331 46.8064 4.37568 46.8333V47.2052H4.79201V46.8083C4.96025 46.7778 5.11157 46.6869 5.21761 46.5528C5.32364 46.4187 5.37709 46.2504 5.36792 46.0797V46.0797Z" stroke="#EB996E" stroke-width="0.561983" stroke-linecap="round" stroke-linejoin="round"/>
</g>
<g opacity="0.3">
<path d="M63.5255 58.5439C64.8109 58.3507 65.6963 57.152 65.503 55.8665C65.3098 54.5811 64.1111 53.6957 62.8257 53.889C61.5402 54.0822 60.6549 55.2809 60.8481 56.5664C61.0414 57.8518 62.2401 58.7372 63.5255 58.5439Z" stroke="#EB996E" stroke-width="0.561983" stroke-linecap="round" stroke-linejoin="round"/>
<path d="M65.1799 56.22C65.1794 55.8232 65.0612 55.4355 64.8404 55.1059C64.6196 54.7763 64.306 54.5195 63.9392 54.3681C63.5725 54.2166 63.1691 54.1773 62.7801 54.255C62.391 54.3327 62.0337 54.5241 61.7533 54.8048C61.473 55.0856 61.2821 55.4431 61.2049 55.8323C61.1277 56.2215 61.1676 56.6248 61.3196 56.9914C61.4715 57.3579 61.7287 57.6711 62.0587 57.8915C62.3886 58.1119 62.7765 58.2295 63.1732 58.2295C63.4371 58.2297 63.6983 58.1778 63.942 58.0768C64.1858 57.9759 64.4072 57.8278 64.5936 57.6412C64.78 57.4545 64.9277 57.2329 65.0283 56.989C65.129 56.7451 65.1805 56.4838 65.1799 56.22V56.22Z" stroke="#EB996E" stroke-width="0.561983" stroke-linecap="round" stroke-linejoin="round"/>
<path d="M64.0267 56.6225C64.0267 55.948 63.0706 55.9286 63.0706 55.651C63.0706 55.5026 63.1483 55.4581 63.3079 55.4581C63.4546 55.4653 63.5928 55.529 63.6937 55.6358L64.0087 55.2722C63.8638 55.1092 63.6683 54.9997 63.4536 54.9613V54.5825H63.0373V54.9738C62.8715 55 62.7213 55.0867 62.6157 55.2172C62.5101 55.3476 62.4566 55.5126 62.4655 55.6802C62.4655 56.3297 63.423 56.3741 63.423 56.6683C63.423 56.807 63.3495 56.875 63.1635 56.875C62.9746 56.8651 62.7943 56.7923 62.6515 56.6683L62.3739 57.0985C62.5627 57.2528 62.7921 57.3492 63.0345 57.376V57.7479H63.4508V57.3497C63.6187 57.3189 63.7696 57.2282 63.8756 57.0944C63.9815 56.9606 64.0352 56.7929 64.0267 56.6225Z" stroke="#EB996E" stroke-width="0.561983" stroke-linecap="round" stroke-linejoin="round"/>
</g>
<g opacity="0.3">
<path d="M16.6241 21.3209C17.9239 21.3209 18.9777 20.2671 18.9777 18.9672C18.9777 17.6674 17.9239 16.6136 16.6241 16.6136C15.3242 16.6136 14.2704 17.6674 14.2704 18.9672C14.2704 20.2671 15.3242 21.3209 16.6241 21.3209Z" stroke="#EB996E" stroke-width="0.561983" stroke-linecap="round" stroke-linejoin="round"/>
<path d="M18.511 19.6483C18.8882 18.6063 18.3492 17.4557 17.3071 17.0784C16.265 16.7012 15.1145 17.2402 14.7372 18.2823C14.36 19.3244 14.899 20.4749 15.9411 20.8522C16.9831 21.2294 18.1337 20.6904 18.511 19.6483Z" stroke="#EB996E" stroke-width="0.561983" stroke-linecap="round" stroke-linejoin="round"/>
<path d="M17.4789 19.3724C17.4789 18.6966 16.5214 18.6786 16.5214 18.401C16.5214 18.2525 16.5991 18.2081 16.7587 18.2081C16.9057 18.2152 17.0441 18.2795 17.1445 18.3871L17.4595 18.0235C17.3146 17.8606 17.1191 17.7511 16.9044 17.7127V17.3324H16.4881V17.7238C16.3222 17.7503 16.1719 17.8373 16.0664 17.968C15.9608 18.0986 15.9073 18.2638 15.9163 18.4315C15.9163 19.081 16.8738 19.1254 16.8738 19.4182C16.8738 19.557 16.8003 19.6264 16.6143 19.6264C16.4253 19.6156 16.2452 19.5424 16.1023 19.4182L15.8247 19.8484C16.0135 20.0028 16.2429 20.0992 16.4853 20.126V20.4993H16.9016V20.0996C17.0697 20.0692 17.221 19.9786 17.3272 19.8448C17.4335 19.711 17.4874 19.5431 17.4789 19.3724V19.3724Z" stroke="#EB996E" stroke-width="0.561983" stroke-linecap="round" stroke-linejoin="round"/>
</g>
<g opacity="0.3">
<path d="M15.1657 52.6163C17.9991 52.3055 20.0441 49.7566 19.7333 46.9232C19.4224 44.0899 16.8736 42.0449 14.0402 42.3557C11.2068 42.6665 9.16191 45.2154 9.47271 48.0487C9.78352 50.8821 12.3324 52.9271 15.1657 52.6163Z" stroke="#EB996E" stroke-width="0.561983" stroke-linecap="round" stroke-linejoin="round"/>
<path d="M18.5508 49.4287C19.6258 47.2498 18.7309 44.6121 16.5521 43.5371C14.3732 42.4622 11.7355 43.357 10.6605 45.5359C9.58557 47.7147 10.4805 50.3525 12.6593 51.4274C14.8381 52.5024 17.4759 51.6075 18.5508 49.4287Z" stroke="#EB996E" stroke-width="0.561983" stroke-linecap="round" stroke-linejoin="round"/>
<path d="M16.4783 48.3681C16.4783 46.8874 14.38 46.8555 14.38 46.2366C14.38 45.9118 14.5507 45.8133 14.9004 45.8133C15.2016 45.8133 15.4555 45.9437 15.747 46.2046L16.4408 45.4067C16.1196 45.0484 15.6869 44.8088 15.2127 44.7267V43.894H14.2981V44.7517C13.5154 44.921 13.0492 45.4802 13.0492 46.3018C13.0492 47.7256 15.1474 47.8144 15.1474 48.4653C15.1474 48.7831 14.9851 48.9205 14.5785 48.9205C14.2371 48.9205 13.8943 48.79 13.4558 48.4653L12.8535 49.409C13.2662 49.7496 13.7691 49.9627 14.3009 50.0223V50.8397H15.2127V49.9654C16.0592 49.7642 16.4783 49.1508 16.4783 48.3681Z" stroke="#EB996E" stroke-width="0.561983" stroke-linecap="round" stroke-linejoin="round"/>
</g>
<path d="M11.6476 22.66C11.6809 23.322 11.123 24.6987 11.123 24.7C11.123 24.7014 10.3264 24.0575 10.282 24.0062C9.76021 23.4594 9.07189 22.098 9.47433 21.3542C9.54465 21.2324 9.63981 21.1268 9.75362 21.0443C9.86743 20.9617 9.99734 20.904 10.1349 20.875C10.2725 20.8459 10.4146 20.8461 10.5521 20.8756C10.6896 20.9051 10.8193 20.9632 10.9329 21.0461C11.4255 21.3861 11.6184 22.0966 11.6476 22.66Z" fill="#BC9434"/>
<path d="M25.1531 35.8104L25.2391 35.8617L25.2502 36.4598L24.8922 36.2392C24.5466 36.0241 24.1817 35.7882 23.8083 35.5453C23.5199 35.8596 23.2131 36.1566 22.8897 36.4349C23.1755 37.0066 23.2963 38.2389 23.306 38.3971C23.707 38.3874 24.097 38.3736 24.4648 38.3555C24.7173 38.343 24.9602 38.3291 25.1947 38.3139L24.9977 38.8357C24.8297 38.8357 24.6604 38.8482 24.4842 38.8523C24.0776 38.8634 23.6432 38.869 23.1964 38.869C23.1714 39.0286 22.9577 40.34 22.6149 40.8604C22.304 41.3308 21.7822 41.8443 21.18 41.8818C21.041 41.895 20.9008 41.8789 20.7683 41.8346C20.6359 41.7904 20.5143 41.7189 20.4111 41.6248C20.308 41.5307 20.2257 41.416 20.1695 41.2882C20.1134 41.1604 20.0846 41.0222 20.085 40.8826C20.1169 40.0361 21.402 39.2173 22.1292 39.0091C22.1722 38.998 22.6524 38.9189 22.9549 38.8704C22.7731 38.8704 22.5955 38.8704 22.4081 38.8704C22.0362 38.8704 21.6657 38.8509 21.266 38.8371L20.6831 38.7954C20.4889 38.7857 20.2835 38.751 20.0822 38.7288C19.6146 38.6691 19.1455 38.59 18.6737 38.4915C18.6737 38.8162 18.6376 39.9709 18.3961 40.4857C18.1547 41.0006 17.7175 41.5862 17.1333 41.7139C16.9968 41.7484 16.8546 41.7537 16.716 41.7296C16.5773 41.7055 16.4453 41.6524 16.3285 41.5738C16.2117 41.4953 16.1128 41.393 16.0381 41.2737C15.9635 41.1543 15.9149 41.0206 15.8954 40.8812C15.7983 40.0402 16.9445 39.0327 17.6329 38.7205C17.6745 38.7011 18.188 38.5331 18.4808 38.4429C18.2032 38.3833 17.9146 38.3264 17.6301 38.257C16.8085 38.0571 15.9842 37.8296 15.1599 37.6061L14.4063 37.4132C14.4063 37.5298 14.3994 38.9037 14.1288 39.4796C13.8929 39.9917 13.4488 40.5801 12.8659 40.7077C12.7295 40.7425 12.5872 40.748 12.4485 40.724C12.3097 40.6999 12.1776 40.6469 12.0608 40.5683C11.9439 40.4897 11.845 40.3873 11.7704 40.2679C11.6959 40.1484 11.6474 40.0146 11.6281 39.8751C11.5309 39.0341 12.6772 38.0266 13.3641 37.7144C13.4169 37.6908 14.1635 37.4493 14.3564 37.398C13.8013 37.2509 13.2462 37.1107 12.6911 36.9955C11.9446 36.8354 11.1886 36.7237 10.4277 36.6611C10.4277 36.7152 10.4277 38.1487 10.1501 38.7427C9.91281 39.2548 9.47012 39.8418 8.88726 39.9695C8.7507 40.0044 8.6083 40.0101 8.46939 39.9862C8.33047 39.9623 8.19818 39.9093 8.08117 39.8307C7.96417 39.752 7.8651 39.6496 7.79045 39.53C7.7158 39.4105 7.66726 39.2765 7.648 39.1368C7.55225 38.2972 8.69714 37.2883 9.38546 36.9761C9.43959 36.9525 10.2431 36.6985 10.3916 36.6555C10.3472 36.6555 10.3028 36.6444 10.2528 36.6416C9.48825 36.6002 8.72151 36.6266 7.96163 36.7207C7.54531 36.7679 7.14286 36.8359 6.75568 36.9109C6.78343 37.1787 6.89445 38.3999 6.70849 38.9592C6.52947 39.4949 6.15339 40.1263 5.58719 40.3178C5.45686 40.3645 5.31826 40.3837 5.18014 40.3741C5.04202 40.3645 4.9074 40.3263 4.78479 40.262C4.66218 40.1977 4.55425 40.1087 4.46782 40.0005C4.3814 39.8923 4.31837 39.7674 4.28271 39.6336C4.09397 38.801 5.11536 37.6811 5.77176 37.2953C5.80646 37.2745 6.18809 37.101 6.46564 36.9775C6.29078 37.0149 6.11176 37.0496 5.94523 37.0871C5.32213 37.2259 4.75871 37.398 4.26189 37.552C3.98434 37.6422 3.72761 37.7283 3.49169 37.8115C3.38206 38.0891 2.9241 39.1993 2.50916 39.5975C2.09422 39.9958 1.47806 40.3775 0.88827 40.2914C0.298477 40.2054 -0.122012 39.6614 0.0320283 39.0716C0.244354 38.2528 1.67651 37.7255 2.43145 37.6838C2.49667 37.6838 3.52222 37.7394 3.51667 37.7532V37.7699C3.74287 37.6852 3.98434 37.5964 4.25218 37.5062C4.74622 37.3411 5.30687 37.1593 5.92997 37.0025C6.59933 36.8238 7.27866 36.6848 7.96441 36.5861C8.73154 36.4742 9.5071 36.4305 10.282 36.4557H10.3097C10.0752 36.3724 9.43126 36.1171 9.38408 36.0921C8.71796 35.7354 7.63967 34.6572 7.78955 33.8245C7.81832 33.6869 7.87575 33.557 7.9581 33.4431C8.04045 33.3291 8.14588 33.2339 8.26751 33.1634C8.38914 33.093 8.52425 33.049 8.66403 33.0342C8.80381 33.0195 8.94513 33.0344 9.07877 33.0779C9.6533 33.243 10.0502 33.8564 10.2597 34.3838C10.4887 34.9777 10.4068 36.3544 10.3985 36.4654C11.1864 36.5109 11.9703 36.6087 12.7452 36.7582C13.1962 36.8429 13.65 36.9428 14.1024 37.0483C13.9026 36.9692 13.725 36.897 13.7014 36.8845C13.0339 36.5278 11.957 35.4496 12.1068 34.6169C12.1356 34.4793 12.1931 34.3493 12.2754 34.2354C12.3577 34.1214 12.4631 34.0261 12.5847 33.9555C12.7063 33.885 12.8414 33.8408 12.9812 33.8259C13.121 33.811 13.2623 33.8256 13.3961 33.8689C13.9706 34.0341 14.3744 34.6488 14.577 35.1762C14.7796 35.7035 14.7366 36.8859 14.7158 37.1967C14.8893 37.2384 15.0627 37.2786 15.2348 37.3216C16.0675 37.527 16.9001 37.738 17.7106 37.9156C17.9978 37.9794 18.2851 38.0322 18.571 38.0849C18.3934 38.0141 18.2449 37.9545 18.224 37.9461C17.5565 37.5909 16.4783 36.5112 16.6295 35.6785C16.6583 35.541 16.7157 35.411 16.7981 35.2971C16.8804 35.1832 16.9858 35.0879 17.1075 35.0175C17.2291 34.947 17.3642 34.903 17.504 34.8883C17.6438 34.8735 17.7851 34.8884 17.9187 34.9319C18.4919 35.0971 18.8971 35.7119 19.0997 36.2378C19.3023 36.7638 19.2635 37.8337 19.2385 38.2029C19.5327 38.2487 19.8283 38.2945 20.1155 38.325C20.3126 38.3416 20.5 38.3722 20.6984 38.3777L21.2826 38.4069C21.6546 38.4069 22.0376 38.418 22.4012 38.4138C22.6524 38.4138 22.8938 38.4069 23.1353 38.4013C22.848 38.3416 22.2874 38.2126 22.2416 38.1959C21.6234 37.952 21.0779 37.554 20.6568 37.0399C20.587 37.0157 20.5196 36.985 20.4555 36.9483C20.3312 36.8826 20.2221 36.7915 20.1354 36.6808C20.0487 36.5701 19.9862 36.4423 19.9522 36.3059C19.9181 36.1695 19.9132 36.0274 19.9378 35.8889C19.9624 35.7504 20.0158 35.6187 20.0947 35.5023C20.5874 34.8154 22.1125 34.8376 22.8314 35.0693C22.8744 35.0832 23.3185 35.2816 23.596 35.4121C23.4448 35.3108 23.2963 35.2136 23.1408 35.1068C22.8328 34.8986 22.5316 34.6821 22.2069 34.4504L21.7531 34.0826C21.5963 33.9674 21.445 33.8259 21.2882 33.6954C20.9329 33.3888 20.586 33.0585 20.2446 32.724C20.0628 32.9932 19.3995 33.9397 18.9165 34.2381C18.4336 34.5364 17.7439 34.7807 17.1874 34.5656C16.6309 34.3505 16.3339 33.7329 16.6101 33.1917C16.9931 32.4368 18.5058 32.2286 19.2468 32.3466C19.294 32.3549 19.8186 32.5006 20.1058 32.5852C19.9032 32.3799 19.6992 32.1759 19.4994 31.9608C18.9249 31.3418 18.3614 30.6965 17.798 30.0554C17.6245 29.8597 17.4497 29.6654 17.2762 29.4711C17.2124 29.5683 16.4436 30.7104 15.9079 31.0448C15.4291 31.3418 14.7352 31.5861 14.1788 31.371C14.046 31.3248 13.9244 31.2513 13.822 31.1551C13.7195 31.0589 13.6384 30.9423 13.5839 30.8127C13.5295 30.6831 13.5029 30.5435 13.5059 30.403C13.5089 30.2625 13.5415 30.1242 13.6014 29.9971C13.9859 29.2435 15.4971 29.034 16.2382 29.1533C16.2951 29.1631 17.0514 29.3726 17.2401 29.4309C16.8571 29.0021 16.4713 28.5788 16.0744 28.1819C15.5402 27.637 14.9714 27.1272 14.3716 26.6554C14.3425 26.7012 13.5501 27.896 12.9978 28.2388C12.5176 28.5358 11.8237 28.7814 11.2673 28.5663C11.1344 28.5201 11.0129 28.4464 10.9104 28.35C10.8079 28.2537 10.7269 28.1369 10.6726 28.0071C10.6183 27.8774 10.5919 27.7377 10.5951 27.5971C10.5983 27.4565 10.6311 27.3182 10.6913 27.1911C11.0744 26.4375 12.5856 26.2294 13.3281 26.3473C13.3877 26.357 14.201 26.5846 14.3453 26.636C14.3106 26.6082 14.2773 26.5763 14.2412 26.5499C13.6263 26.0941 12.9725 25.6933 12.2873 25.3523C11.9112 25.1608 11.5406 24.997 11.177 24.8458C11.0522 25.0845 10.4693 26.1641 10.0072 26.5277C9.54506 26.8913 8.89698 27.1952 8.32245 27.0426C8.18547 27.0111 8.05664 26.9512 7.94433 26.8667C7.83201 26.7822 7.73873 26.675 7.67055 26.5521C7.60236 26.4293 7.56079 26.2934 7.54854 26.1534C7.53628 26.0134 7.55362 25.8723 7.59943 25.7395C7.89641 24.9485 9.37575 24.5752 10.1307 24.6112C10.1723 24.6112 10.5873 24.6792 10.8884 24.732C10.7233 24.6667 10.554 24.5932 10.3944 24.5363C9.79485 24.3115 9.23281 24.1422 8.72906 23.9951C8.45151 23.9146 8.18506 23.848 7.9422 23.7869C7.69796 23.9562 6.70572 24.6279 6.13813 24.7334C5.57054 24.8388 4.84752 24.8166 4.40622 24.4156C3.96491 24.0145 3.91079 23.3331 4.36458 22.9265C4.99323 22.3603 6.47813 22.7114 7.13176 23.0903C7.18727 23.1236 8.01159 23.7383 7.9991 23.7481L7.98384 23.7578C8.21837 23.8119 8.46955 23.8716 8.74294 23.9423C9.24669 24.0811 9.81289 24.2352 10.4193 24.4489C11.0752 24.6711 11.7174 24.9315 12.3428 25.2288C13.0442 25.5592 13.7152 25.9507 14.3481 26.3987L14.3689 26.4167C14.2204 26.2183 13.8249 25.6493 13.7985 25.6021C13.4391 24.9374 13.1352 23.4428 13.7208 22.8266C13.8207 22.7279 13.9403 22.6513 14.0717 22.6018C14.2032 22.5524 14.3435 22.5312 14.4837 22.5395C14.6239 22.5479 14.7608 22.5857 14.8854 22.6505C15.01 22.7152 15.1196 22.8055 15.2071 22.9154C15.5956 23.3692 15.5929 24.1047 15.4721 24.6556C15.3334 25.2774 14.5007 26.3806 14.441 26.468C15.0795 26.9418 15.6855 27.4578 16.2548 28.0126C16.5851 28.3332 16.9085 28.6649 17.2263 29.0021C17.1041 28.8272 16.9945 28.669 16.982 28.6454C16.6226 27.9807 16.3187 26.4847 16.9043 25.8699C17.0042 25.7712 17.1238 25.6946 17.2552 25.6452C17.3867 25.5957 17.527 25.5745 17.6672 25.5829C17.8074 25.5912 17.9443 25.629 18.0689 25.6938C18.1935 25.7586 18.3031 25.8488 18.3906 25.9587C18.7791 26.4125 18.7764 27.148 18.6556 27.699C18.5349 28.2499 17.8452 29.213 17.6592 29.4642C17.7814 29.5946 17.9035 29.7237 18.0242 29.8542C18.6029 30.4842 19.1774 31.1142 19.7603 31.7151C19.9657 31.9275 20.1766 32.1315 20.3848 32.3313C20.2765 32.1745 20.1863 32.0426 20.1738 32.0204C19.8144 31.3557 19.5105 29.8611 20.0961 29.2449C20.5124 28.805 21.2063 28.8897 21.5824 29.3338C21.9585 29.7778 21.9682 30.5244 21.8475 31.0754C21.7267 31.6263 21.1036 32.495 20.8844 32.7934C21.105 32.9946 21.3257 33.1959 21.5491 33.3804C21.7031 33.5026 21.8447 33.6316 22.0071 33.7454L22.4775 34.091C22.7856 34.3005 23.1006 34.5184 23.4059 34.7141C23.6168 34.8528 23.8222 34.9805 24.0262 35.1096C23.8195 34.9014 23.4226 34.4837 23.3934 34.4448C22.9368 33.8425 22.4109 32.4118 22.8966 31.7179C22.9804 31.6051 23.087 31.5112 23.2095 31.4424C23.3319 31.3735 23.4675 31.3311 23.6074 31.318C23.7473 31.3049 23.8884 31.3214 24.0215 31.3664C24.1547 31.4114 24.2768 31.4839 24.3801 31.5791C24.8311 31.9691 24.9352 32.6963 24.9047 33.2597C24.8644 33.88 24.2441 35.0513 24.165 35.2025C24.5036 35.419 24.8353 35.623 25.1531 35.8104Z" fill="#BC9434"/>
<path d="M6.63773 36.8234C6.63773 36.8387 5.61912 36.7263 5.55528 36.7124C4.81839 36.5445 3.49308 35.7882 3.41815 34.9458C3.40981 34.8055 3.4311 34.6649 3.48064 34.5334C3.53017 34.4018 3.60684 34.2821 3.70566 34.1821C3.80449 34.0821 3.92324 34.004 4.05422 33.9529C4.1852 33.9018 4.32547 33.8789 4.4659 33.8856C5.06263 33.8925 5.61495 34.3782 5.9494 34.8334C6.34214 35.3663 6.63773 36.822 6.63773 36.8234Z" fill="#BC9434"/>
<path d="M80.3578 22.66C80.3244 23.322 80.8809 24.6987 80.8809 24.7C80.8809 24.7014 81.6775 24.0575 81.7233 24.0062C82.2451 23.4594 82.9334 22.098 82.531 21.3542C82.4607 21.2324 82.3655 21.1268 82.2517 21.0443C82.1379 20.9617 82.008 20.904 81.8704 20.875C81.7328 20.8459 81.5907 20.8461 81.4532 20.8756C81.3157 20.9051 81.186 20.9632 81.0724 21.0461C80.5784 21.3861 80.3855 22.0966 80.3578 22.66Z" fill="#BC9434"/>
<path d="M66.8523 35.8104L66.7649 35.8617L66.7552 36.4598L67.1132 36.2392C67.4588 36.0241 67.8237 35.7882 68.1957 35.5453C68.4842 35.8596 68.7909 36.1566 69.1143 36.4349C68.8285 37.0066 68.7091 38.2389 68.698 38.3971C68.297 38.3874 67.9084 38.3735 67.5406 38.3555C67.2867 38.343 67.0438 38.3291 66.8107 38.3139L67.0091 38.8398C67.1757 38.8398 67.345 38.8523 67.5212 38.8565C67.9278 38.8676 68.3636 38.8731 68.8104 38.8731C68.8354 39.0327 69.0491 40.3441 69.3919 40.8646C69.7028 41.335 70.2245 41.8485 70.8254 41.8859C70.9653 41.8998 71.1066 41.884 71.24 41.8396C71.3734 41.7952 71.4959 41.7232 71.5996 41.6283C71.7033 41.5334 71.7859 41.4176 71.8418 41.2887C71.8978 41.1597 71.926 41.0204 71.9245 40.8798C71.8926 40.0333 70.6076 39.2145 69.8804 39.0064C69.8374 38.9953 69.3572 38.9162 69.0477 38.8676C69.2309 38.8676 69.4072 38.8676 69.6028 38.8676C69.9747 38.8676 70.3453 38.8482 70.7436 38.8343L71.3264 38.7926C71.5221 38.7829 71.7261 38.7482 71.9287 38.726C72.395 38.6664 72.8654 38.5873 73.3373 38.4887C73.3373 38.8135 73.372 39.9681 73.6148 40.4829C73.8577 40.9978 74.2948 41.5834 74.8777 41.7111C75.0142 41.7456 75.1565 41.7509 75.2952 41.7268C75.434 41.7027 75.5661 41.6497 75.683 41.5711C75.7999 41.4926 75.8989 41.3903 75.9737 41.271C76.0485 41.1516 76.0973 41.0179 76.1169 40.8784C76.2127 40.0375 75.0678 39.0299 74.3795 38.7177C74.3364 38.6983 73.8244 38.5304 73.5315 38.4402C73.8091 38.3805 74.0964 38.3236 74.3822 38.2542C75.2024 38.0544 76.0281 37.8268 76.8524 37.6033L77.5935 37.4132C77.5935 37.5298 77.6004 38.9037 77.871 39.4796C78.107 39.9917 78.5497 40.5801 79.1325 40.7077C79.7154 40.8354 80.3024 40.4843 80.3718 39.8751C80.4675 39.0341 79.3226 38.0266 78.6343 37.7144C78.583 37.6908 77.8363 37.4493 77.6435 37.398C78.1986 37.2509 78.7537 37.1107 79.3088 36.9955C80.0548 36.8354 80.8104 36.7237 81.5708 36.6611C81.5708 36.7152 81.5708 38.1487 81.8483 38.7427C82.0842 39.2548 82.5283 39.8418 83.1112 39.9695C83.2477 40.0042 83.3899 40.0097 83.5287 39.9857C83.6674 39.9616 83.7995 39.9086 83.9164 39.83C84.0332 39.7514 84.1321 39.649 84.2067 39.5296C84.2813 39.4101 84.3298 39.2763 84.3491 39.1368C84.4462 38.2972 83.3013 37.2883 82.613 36.9761C82.5589 36.9525 81.7554 36.6985 81.6055 36.6555C81.6499 36.6555 81.6957 36.6444 81.7443 36.6416C82.5084 36.6002 83.2746 36.6267 84.034 36.7207C84.4504 36.7679 84.8542 36.8359 85.24 36.9109C85.2136 37.1787 85.1012 38.3999 85.2886 38.9592C85.4676 39.4948 85.8437 40.1263 86.4085 40.3178C86.5395 40.3661 86.6791 40.3865 86.8184 40.3777C86.9578 40.3689 87.0937 40.3311 87.2176 40.2667C87.3415 40.2023 87.4505 40.1127 87.5377 40.0037C87.625 39.8947 87.6884 39.7686 87.7241 39.6336C87.9128 38.801 86.8914 37.6811 86.235 37.2953C86.2003 37.2744 85.8187 37.101 85.5411 36.9775C85.7146 37.0149 85.895 37.0496 86.0615 37.0871C86.6846 37.2259 87.2467 37.398 87.7435 37.552C88.0211 37.6422 88.2792 37.7282 88.5151 37.8115C88.6247 38.0891 89.0827 39.1993 89.4976 39.5975C89.9126 39.9958 90.5273 40.3775 91.1171 40.2914C91.2567 40.2745 91.3912 40.2285 91.5118 40.1563C91.6325 40.0841 91.7366 39.9874 91.8175 39.8724C91.8983 39.7574 91.9541 39.6267 91.9812 39.4887C92.0083 39.3507 92.0061 39.2086 91.9748 39.0716C91.761 38.2528 90.3289 37.7255 89.5753 37.6838C89.5101 37.6838 88.4846 37.7393 88.4901 37.7532V37.7699C88.2653 37.6852 88.0224 37.5964 87.756 37.5062C87.2606 37.3411 86.7013 37.1593 86.0782 37.0024C85.4088 36.8239 84.7295 36.6849 84.0438 36.5861C83.2766 36.4742 82.5011 36.4305 81.7262 36.4557H81.6985C81.9316 36.3724 82.5769 36.1171 82.6241 36.0921C83.2902 35.7354 84.3685 34.6571 84.2172 33.8245C84.1885 33.6869 84.131 33.5569 84.0487 33.443C83.9663 33.3291 83.8609 33.2339 83.7393 33.1634C83.6176 33.093 83.4825 33.049 83.3427 33.0342C83.203 33.0195 83.0617 33.0344 82.928 33.0779C82.3549 33.243 81.9496 33.8564 81.747 34.3838C81.5181 34.9777 81.6083 36.3544 81.6083 36.4654C80.8195 36.5102 80.0346 36.6076 79.2588 36.7568C78.8064 36.8415 78.354 36.9414 77.9016 37.0469C78.1014 36.9677 78.279 36.8956 78.3026 36.8831C78.9688 36.5264 80.047 35.4482 79.8972 34.6155C79.8684 34.4779 79.8109 34.3479 79.7286 34.234C79.6463 34.12 79.5409 34.0247 79.4193 33.9541C79.2977 33.8836 79.1626 33.8394 79.0228 33.8245C78.883 33.8096 78.7417 33.8242 78.6079 33.8675C78.0334 34.0327 77.6282 34.6474 77.4256 35.1748C77.223 35.7021 77.2674 36.8845 77.2868 37.1953L76.7664 37.3202C75.9337 37.5256 75.1094 37.7366 74.292 37.9142C74.0034 37.978 73.7175 38.0308 73.4316 38.0835C73.6079 38.0127 73.7564 37.9531 73.7786 37.9447C74.4447 37.5895 75.523 36.5098 75.3731 35.6771C75.3443 35.5396 75.2869 35.4096 75.2045 35.2957C75.1222 35.1818 75.0168 35.0865 74.8951 35.0161C74.7735 34.9456 74.6384 34.9016 74.4986 34.8869C74.3588 34.8721 74.2175 34.887 74.0839 34.9305C73.5093 35.0957 73.1055 35.7104 72.9029 36.2364C72.7003 36.7624 72.7364 37.8295 72.7572 38.1973C72.463 38.2431 72.1674 38.2889 71.8801 38.3194C71.6831 38.3361 71.4943 38.3666 71.2959 38.3722L70.713 38.4013C70.3411 38.4013 69.9567 38.4124 69.5945 38.4082C69.3419 38.4082 69.1019 38.4013 68.8604 38.3957C69.1476 38.3361 69.7083 38.207 69.7527 38.1904C70.3711 37.9469 70.9168 37.5489 71.3375 37.0344C71.4077 37.0101 71.4755 36.9795 71.5401 36.9428C71.6643 36.8769 71.7732 36.7857 71.8598 36.675C71.9464 36.5642 72.0088 36.4366 72.0428 36.3002C72.0769 36.1638 72.0818 36.0218 72.0574 35.8834C72.0329 35.7449 71.9796 35.6132 71.9009 35.4967C71.4083 34.8098 69.8818 34.832 69.1629 35.0638C69.1213 35.0776 68.6772 35.2761 68.3983 35.4065C68.5509 35.3052 68.6994 35.2081 68.8534 35.1012C69.1615 34.8931 69.4627 34.6766 69.7874 34.4448L70.2509 34.0882C70.4077 33.973 70.559 33.8314 70.7158 33.701C71.0725 33.3943 71.418 33.064 71.7594 32.7296C71.9426 32.9988 72.6059 33.9452 73.0875 34.2436C73.569 34.542 74.2629 34.7765 74.818 34.5669C75.3731 34.3574 75.6701 33.7343 75.3939 33.1931C75.0109 32.4381 73.4996 32.23 72.7572 32.3479C72.7114 32.3563 72.1854 32.502 71.8982 32.5866C72.1022 32.3812 72.3062 32.1772 72.5046 31.9621C73.0805 31.3432 73.6426 30.6979 74.2074 30.0568C74.3795 29.8611 74.5543 29.6668 74.7278 29.4725C74.793 29.5697 75.5604 30.7118 76.0961 31.0462C76.5763 31.3432 77.2701 31.5874 77.8266 31.3723C77.9594 31.3262 78.081 31.2527 78.1834 31.1565C78.2859 31.0603 78.3669 30.9436 78.4212 30.8139C78.4756 30.6843 78.502 30.5447 78.4988 30.4042C78.4955 30.2637 78.4628 30.1255 78.4026 29.9985C78.0195 29.2449 76.5083 29.0354 75.7658 29.1547C75.7103 29.1644 74.954 29.374 74.7639 29.4323C75.1469 29.0035 75.5341 28.5802 75.931 28.1833C76.4644 27.6381 77.0327 27.1282 77.6324 26.6568C77.6629 26.7026 78.4553 27.8974 79.0076 28.2402C79.4878 28.5372 80.1803 28.7828 80.7381 28.5677C80.8709 28.5214 80.9925 28.4477 81.095 28.3514C81.1975 28.2551 81.2785 28.1382 81.3328 28.0085C81.3871 27.8788 81.4135 27.7391 81.4103 27.5985C81.4071 27.4579 81.3743 27.3195 81.3141 27.1924C80.931 26.4389 79.4198 26.2307 78.6773 26.3487C78.619 26.3584 77.8058 26.586 77.6615 26.6373C77.6962 26.6096 77.7295 26.5777 77.7642 26.5513C78.3795 26.0955 79.0339 25.6947 79.7195 25.3537C80.0956 25.1622 80.4661 24.9984 80.8297 24.8471C80.9546 25.0858 81.5361 26.1655 81.9996 26.5291C82.4631 26.8927 83.1098 27.1966 83.6829 27.0439C83.82 27.0127 83.949 26.9529 84.0615 26.8684C84.174 26.784 84.2674 26.6769 84.3357 26.5539C84.4041 26.431 84.4458 26.2951 84.4581 26.155C84.4704 26.0149 84.4531 25.8738 84.4073 25.7409C84.109 24.9498 82.6296 24.5765 81.8747 24.6126C81.8345 24.6126 81.4195 24.6806 81.1184 24.7333C81.2835 24.6681 81.4528 24.5946 81.6124 24.5377C82.2105 24.3129 82.7726 24.1436 83.2777 23.9965C83.5553 23.916 83.8217 23.8494 84.0632 23.7883C84.3074 23.9576 85.2997 24.6293 85.8673 24.7347C86.4349 24.8402 87.1565 24.818 87.5992 24.4169C88.0419 24.0159 88.0946 23.3345 87.6408 22.9279C87.0108 22.3617 85.5259 22.7128 84.8736 23.0916C84.8167 23.1249 83.9938 23.7397 84.0063 23.7494L84.0216 23.7591C83.7856 23.8133 83.5344 23.8729 83.2624 23.9437C82.7587 24.0825 82.1911 24.2365 81.5847 24.4502C80.9293 24.6724 80.2875 24.9329 79.6626 25.2302C78.9609 25.56 78.2898 25.9515 77.6573 26.4L77.6351 26.4181C77.7836 26.2196 78.1805 25.6506 78.2055 25.6035C78.5649 24.9387 78.8688 23.4441 78.2846 22.828C78.1846 22.7292 78.0649 22.6526 77.9333 22.6032C77.8018 22.5537 77.6613 22.5324 77.521 22.5408C77.3807 22.5492 77.2437 22.587 77.1189 22.6518C76.9942 22.7165 76.8845 22.8068 76.7969 22.9168C76.4097 23.3706 76.4111 24.1061 76.5333 24.657C76.672 25.2787 77.5047 26.382 77.5643 26.4694C76.9323 26.942 76.3324 27.4562 75.7686 28.0084C75.4383 28.329 75.1164 28.6607 74.7972 28.9979C74.9193 28.823 75.0275 28.6648 75.0414 28.6412C75.4008 27.9765 75.7034 26.4805 75.1191 25.8657C75.0191 25.767 74.8994 25.6904 74.7679 25.6409C74.6363 25.5915 74.4958 25.5702 74.3555 25.5786C74.2152 25.587 74.0782 25.6248 73.9535 25.6896C73.8287 25.7543 73.719 25.8446 73.6315 25.9546C73.2443 26.4084 73.2457 27.1439 73.3678 27.6948C73.4899 28.2457 74.1782 29.2088 74.3628 29.46L73.9853 29.8583C73.4067 30.4883 72.8307 31.1184 72.2479 31.7193C72.0439 31.9316 71.8316 32.1356 71.6234 32.3354C71.733 32.1786 71.8232 32.0468 71.8343 32.0246C72.1938 31.3599 72.4977 29.8652 71.9134 29.2491C71.8134 29.1503 71.6937 29.0737 71.5622 29.0243C71.4306 28.9748 71.2901 28.9536 71.1498 28.9619C71.0095 28.9703 70.8725 29.0081 70.7478 29.0729C70.623 29.1377 70.5133 29.228 70.4258 29.3379C70.0386 29.7917 70.04 30.5286 70.1621 31.0795C70.2842 31.6305 70.9059 32.4992 71.1238 32.7976C70.9032 32.9988 70.6839 33.2 70.4605 33.3846C70.305 33.5067 70.1649 33.6358 70.0025 33.7496L69.5307 34.0951C69.224 34.3047 68.9076 34.5225 68.6023 34.7182C68.3913 34.857 68.1859 34.9847 67.9833 35.1137C68.1901 34.9056 68.587 34.4878 68.6161 34.449C69.0713 33.8467 69.5987 32.4159 69.113 31.7221C69.0291 31.6093 68.9225 31.5154 68.8001 31.4465C68.6776 31.3776 68.542 31.3352 68.4021 31.3222C68.2622 31.3091 68.1211 31.3256 67.988 31.3705C67.8549 31.4155 67.7327 31.488 67.6294 31.5833C67.177 31.9732 67.0743 32.7004 67.1035 33.2638C67.1451 33.8842 67.7654 35.0554 67.8432 35.2067C67.5018 35.419 67.1687 35.623 66.8523 35.8104Z" fill="#BC9434"/>
<path d="M85.3648 36.8234C85.3648 36.8387 86.3834 36.7263 86.4473 36.7124C87.1828 36.5445 88.5081 35.7882 88.583 34.9458C88.6371 34.3394 88.1209 33.8786 87.5367 33.8856C86.9524 33.8925 86.3876 34.3782 86.0532 34.8334C85.6632 35.3663 85.3648 36.822 85.3648 36.8234Z" fill="#BC9434"/>
<path d="M27.4384 11.0019L25.076 12.8515L27.9429 16.5131L30.3053 14.6634L27.4384 11.0019Z" fill="#BC9434" stroke="#BC9434" stroke-width="0.561983" stroke-linejoin="round"/>
<path d="M27.2493 9.05633L23.2326 12.2013L25.2671 14.7996L29.2837 11.6547L27.2493 9.05633Z" fill="#BC9434" stroke="#BC9434" stroke-width="0.561983" stroke-linejoin="round"/>
<path d="M24.0998 11.6455L25.5916 13.5509" stroke="#BC9434" stroke-width="0.561983" stroke-linejoin="round"/>
<path d="M25.4598 10.5811L26.9516 12.4851" stroke="#BC9434" stroke-width="0.561983" stroke-linejoin="round"/>
<path d="M25.0893 11.6025L26.5811 13.5065" stroke="#BC9434" stroke-width="0.561983" stroke-linejoin="round"/>
<path d="M58.0866 14.666L60.4489 16.5157L63.3158 12.8542L60.9535 11.0045L58.0866 14.666Z" fill="#BC9434" stroke="#BC9434" stroke-width="0.561983" stroke-linejoin="round"/>
<path d="M59.1103 11.654L63.127 14.799L65.1614 12.2006L61.1448 9.05566L59.1103 11.654Z" fill="#BC9434" stroke="#BC9434" stroke-width="0.561983" stroke-linejoin="round"/>
<path d="M64.2959 11.6455L62.8041 13.5509" stroke="#BC9434" stroke-width="0.561983" stroke-linejoin="round"/>
<path d="M62.936 10.5811L61.4442 12.4851" stroke="#BC9434" stroke-width="0.561983" stroke-linejoin="round"/>
<path d="M63.3064 11.6025L61.8146 13.5065" stroke="#BC9434" stroke-width="0.561983" stroke-linejoin="round"/>
<path d="M46.4495 4.56935H41.584V9.44174H46.4495V4.56935Z" fill="#BC9434" stroke="#BC9434" stroke-width="0.561983" stroke-linejoin="round"/>
<path d="M47.5375 1.77439H40.496V6.64679H47.5375V1.77439Z" fill="#BC9434" stroke="#BC9434" stroke-width="0.561983" stroke-linejoin="round"/>
<path d="M41.1288 1.75777V5.81833" stroke="#BC9434" stroke-width="0.561983" stroke-linejoin="round"/>
<path d="M41.7089 6.00012V3.82413" stroke="#BC9434" stroke-width="0.561983" stroke-linejoin="round"/>
<path d="M42.3251 1.86737V4.94818" stroke="#BC9434" stroke-width="0.561983" stroke-linejoin="round"/>
<path d="M42.9413 3.35366V6.18189" stroke="#BC9434" stroke-width="0.561983" stroke-linejoin="round"/>
<path d="M43.885 1.90351V5.09394" stroke="#BC9434" stroke-width="0.561983" stroke-linejoin="round"/>
<path d="M62.0136 52.0387C71.9535 42.0988 71.9535 25.983 62.0136 16.0431C52.0737 6.10317 35.9579 6.10317 26.018 16.0431C16.0781 25.983 16.0781 42.0988 26.018 52.0387C35.9579 61.9786 52.0737 61.9786 62.0136 52.0387Z" fill="#BC9434" stroke="#BC9434" stroke-width="0.561983" stroke-linejoin="round"/>
<path d="M59.9039 49.9289C68.6786 41.1542 68.6786 26.9276 59.9039 18.1528C51.1291 9.37813 36.9025 9.37813 28.1278 18.1528C19.3531 26.9276 19.3531 41.1542 28.1278 49.9289C36.9025 58.7036 51.1291 58.7036 59.9039 49.9289Z" fill="white" stroke="#BC9434" stroke-width="0.561983" stroke-linejoin="round"/>
<path d="M58.6586 48.6837C66.7456 40.5967 66.7456 27.4851 58.6586 19.3981C50.5716 11.3111 37.46 11.3111 29.373 19.3981C21.286 27.4851 21.286 40.5967 29.373 48.6836C37.46 56.7706 50.5716 56.7706 58.6586 48.6837Z" fill="white" stroke="#BC9434" stroke-width="0.561983" stroke-linejoin="round"/>
<path d="M44.0167 13.333V16.1404" stroke="#BC9434" stroke-width="0.561983" stroke-linejoin="round"/>
<path d="M44.0167 51.9208V54.7282" stroke="#BC9434" stroke-width="0.561983" stroke-linejoin="round"/>
<path d="M64.7136 34.0313H61.9062" stroke="#BC9434" stroke-width="0.561983" stroke-linejoin="round"/>
<path d="M26.1259 34.0313H23.3185" stroke="#BC9434" stroke-width="0.561983" stroke-linejoin="round"/>
<path d="M58.652 19.3961L56.6661 21.3805" stroke="#BC9434" stroke-width="0.561983" stroke-linejoin="round"/>
<path d="M31.366 46.6806L29.3815 48.6665" stroke="#BC9434" stroke-width="0.561983" stroke-linejoin="round"/>
<path d="M29.3815 19.3961L31.366 21.3805" stroke="#BC9434" stroke-width="0.561983" stroke-linejoin="round"/>
<path d="M56.6661 46.6806L58.652 48.6665" stroke="#BC9434" stroke-width="0.561983" stroke-linejoin="round"/>
<path d="M49.1251 32.0593L49.4484 33.293L28.2852 38.3971L28.1881 38.0266L49.1251 32.0593Z" fill="#BC9434" stroke="#BC9434" stroke-width="0.561983" stroke-linejoin="round"/>
<path d="M44.8286 34.041C44.8286 33.8804 44.7809 33.7235 44.6917 33.59C44.6025 33.4565 44.4757 33.3524 44.3274 33.291C44.1791 33.2295 44.0158 33.2134 43.8583 33.2448C43.7009 33.2761 43.5562 33.3534 43.4427 33.467C43.3291 33.5805 43.2518 33.7251 43.2205 33.8826C43.1892 34.0401 43.2052 34.2033 43.2667 34.3517C43.3281 34.5 43.4322 34.6268 43.5657 34.716C43.6992 34.8052 43.8562 34.8528 44.0167 34.8528C44.1233 34.8528 44.2289 34.8318 44.3274 34.791C44.4259 34.7502 44.5154 34.6904 44.5908 34.6151C44.6662 34.5397 44.726 34.4502 44.7668 34.3517C44.8076 34.2532 44.8286 34.1476 44.8286 34.041Z" fill="white" stroke="#BC9434" stroke-width="0.561983" stroke-linejoin="round"/>
<path d="M36.219 49.4283L34.9492 48.5957C34.9492 48.5957 34.1624 49.3576 34.1166 49.4283C34.0708 49.4991 31.9087 49.7572 31.4799 49.7572C31.051 49.7572 30.7443 49.6559 30.693 49.8599C30.6417 50.0639 31.3022 50.5191 32.2667 50.7731C32.6469 50.873 33.202 51.0728 33.7488 51.2685L33.6628 51.4836C33.6628 51.4836 35.1088 52.0165 35.3378 52.0387C35.4155 52.0484 35.4904 51.9305 35.5557 51.7723C35.7819 51.5683 36.219 49.4283 36.219 49.4283Z" fill="#BC9434" stroke="#BC9434" stroke-width="0.561983" stroke-linejoin="round"/>
<path d="M57.7208 38.5678L58.0261 40.0499C58.0261 40.0499 59.1211 40.0638 59.2113 40.0499C59.3015 40.0361 61.0153 41.3725 61.3165 41.6764C61.6176 41.9803 61.7661 42.2662 61.9465 42.1579C62.1269 42.0497 61.9784 41.2614 61.4733 40.401C61.2735 40.0624 61.0195 39.5295 60.7711 39.005L60.9834 38.9134C60.9834 38.9134 60.3326 37.5159 60.1882 37.3369C60.1383 37.2758 60.0023 37.3064 59.8455 37.3716C59.5346 37.3619 57.7208 38.5678 57.7208 38.5678Z" fill="#BC9434" stroke="#BC9434" stroke-width="0.561983" stroke-linejoin="round"/>
<path d="M42.8996 34.603C42.8996 34.603 42.493 34.857 42.5444 35.0096C42.5957 35.1623 42.9246 35.4149 42.9246 35.4149C42.9246 35.4149 37.5596 40.0402 37.4583 40.3955C37.357 40.7508 34.1138 48.5902 34.1138 48.5902L36.6006 49.8391L39.9201 41.9484L45.5641 38.3402C45.5641 38.3402 49.6441 44.1438 50.0507 44.0939C50.4573 44.0439 58.8046 40.1554 58.8046 40.1554L57.99 38.2459L50.9375 40.6606L48.7351 35.7202C48.7351 35.7202 49.268 34.8056 48.9391 33.9161C48.6102 33.0265 47.6444 31.6568 47.6444 31.6568L42.8996 34.603Z" fill="#BC9434" stroke="#BC9434" stroke-width="0.561983" stroke-linejoin="round"/>
<path d="M45.5627 38.3333C45.5627 38.3333 48.266 36.7152 48.495 36.4862" stroke="#999999" stroke-width="0.561983" stroke-linejoin="round"/>
<path d="M44.0875 34.578C44.3995 34.2999 44.7316 34.0453 45.0812 33.8162C45.6141 33.5122 46.8325 33.5622 46.8325 33.5622" stroke="#999999" stroke-width="0.561983" stroke-linejoin="round"/>
<path d="M43.2285 35.3385C43.2285 35.3385 43.4089 35.172 43.6643 34.9458" stroke="#999999" stroke-width="0.561983" stroke-linejoin="round"/>
<path d="M47.4154 33.2833C47.4154 33.2833 46.4009 33.1556 45.6113 33.3596" stroke="#999999" stroke-width="0.561983" stroke-linejoin="round"/>
<path d="M46.1969 38.0793C46.1969 38.0793 48.3035 38.461 48.9891 38.4096" stroke="#999999" stroke-width="0.561983" stroke-linejoin="round"/>
<path d="M48.7587 39.7099C48.9225 39.7585 49.0848 39.7988 49.243 39.8307" stroke="#999999" stroke-width="0.561983" stroke-linejoin="round"/>
<path d="M46.172 38.5373C46.8544 38.9401 47.5704 39.2832 48.3119 39.5629" stroke="#999999" stroke-width="0.561983" stroke-linejoin="round"/>
<path d="M42.4917 34.1464L42.8983 34.603L47.6444 31.6582L47.3391 31.3543L42.4917 34.1464Z" fill="#BC9434" stroke="#BC9434" stroke-width="0.561983" stroke-linejoin="round"/>
<path d="M49.3957 28.268L49.8315 28.855L50.8972 28.4858L50.6794 27.9627L49.3957 28.268Z" fill="white" stroke="#BC9434" stroke-width="0.561983" stroke-linejoin="round"/>
<path d="M38.1813 23.9881C38.1813 23.9881 36.0705 24.0187 34.9895 23.9881C33.9084 23.9576 30.8873 23.3553 30.6458 23.8077C30.4043 24.2601 30.9164 25.4966 32.3958 25.9796C33.8751 26.4625 37.1016 26.9149 37.1016 26.9149C37.1016 26.9149 38.4283 28.5802 39.1833 29.5697C39.9382 30.5591 41.3246 32.8586 41.4453 33.0696C41.566 33.2805 42.1086 34.5781 42.833 34.3061C43.5574 34.0341 47.5084 31.5916 47.5084 31.4098C47.5084 31.228 47.5084 30.9935 47.389 30.8367C47.2697 30.6799 45.85 28.9369 45.6085 28.4775C45.3671 28.0182 44.4983 25.7936 44.4983 25.7936L46.3982 25.3412C46.3982 25.3412 48.6311 27.8142 49.0529 28.2069C49.4748 28.5996 49.837 28.4484 49.837 28.4484C49.837 28.4484 50.8334 28.2666 50.8626 27.9654C50.8917 27.6643 47.5444 22.5352 47.2128 22.3548C46.8811 22.1744 44.6482 22.9279 43.7434 23.0778C42.8386 23.2277 41.752 23.2887 40.485 23.5912C39.7266 23.7739 38.9571 23.9065 38.1813 23.9881Z" fill="white" stroke="#BC9434" stroke-width="0.561983" stroke-linejoin="round"/>
<path d="M44.483 25.7991L41.4661 26.6429" stroke="#BC9434" stroke-width="0.561983" stroke-linejoin="round"/>
<path d="M43.1244 26.1905L42.0698 27.0356" stroke="#BC9434" stroke-width="0.561983" stroke-linejoin="round"/>
<path d="M34.5287 25.7353L34.0749 25.5272" stroke="#BC9434" stroke-width="0.561983" stroke-linejoin="round"/>
<path d="M34.9797 25.4675L37.0919 26.9149L34.8576 25.888" stroke="#BC9434" stroke-width="0.561983" stroke-linejoin="round"/>
<path d="M42.1738 30.1248C43.2355 30.3454 45.0881 30.6701 46.6507 30.6354" stroke="#BC9434" stroke-width="0.561983" stroke-linejoin="round"/>
<path d="M41.3037 29.9277C41.3037 29.9277 41.4855 29.9735 41.795 30.0429" stroke="#BC9434" stroke-width="0.561983" stroke-linejoin="round"/>
<path d="M44.5802 30.1969C44.5802 30.1969 45.8375 30.4578 46.6771 30.4578" stroke="#BC9434" stroke-width="0.561983" stroke-linejoin="round"/>
<path d="M38.1424 25.5813L38.599 27.1092L39.1929 25.5355L38.1424 25.5813Z" fill="#BC9434" stroke="#BC9434" stroke-width="0.561983" stroke-linejoin="round"/>
<path d="M38.2798 24.4294L37.6775 25.0928L38.7156 25.924L39.297 24.886L38.2798 24.4294Z" fill="white" stroke="#BC9434" stroke-width="0.561983" stroke-linejoin="round"/>
<path d="M37.6775 25.0928L37.969 26.3182L38.3839 25.6534L37.6775 25.0928Z" fill="white" stroke="#BC9434" stroke-width="0.561983" stroke-linejoin="round"/>
<path d="M35.7472 19.7374C35.7472 19.7374 35.3308 20.7547 35.353 21.0239C35.3752 21.2931 35.582 21.4596 35.5612 21.7719C35.5404 22.0841 34.8965 22.6642 35.0422 22.8099C35.1879 22.9556 35.7263 23.1832 35.7263 23.1832C35.7263 23.1832 36.3078 24.3878 36.516 24.4322C36.7241 24.4766 37.8441 23.9132 37.8441 23.9132L38.7156 25.9254L40.4391 23.3733L39.8577 22.2312C39.8577 22.2312 40.3559 20.9448 39.8785 19.8859C39.4011 18.8271 37.8857 18.7646 37.1585 18.8895C36.4313 19.0144 35.8929 19.3225 35.7472 19.7374Z" fill="white" stroke="#BC9434" stroke-width="0.561983" stroke-miterlimit="10"/>
<path d="M37.1391 19.5112C36.9703 19.4754 36.7957 19.4773 36.6278 19.5169C36.4598 19.5565 36.3027 19.6328 36.1677 19.7402C35.6501 20.1135 35.2129 20.5285 35.0062 20.1565C34.7994 19.7846 35.4419 19.1601 35.4419 19.1601C35.4419 19.1601 34.9229 19.0144 35.1311 18.4135C35.3392 17.8126 36.1025 17.6863 36.1025 17.8945C36.1025 18.1027 36.04 18.2678 36.6215 17.9778C37.203 17.6877 37.5138 17.6031 37.6387 17.9361C37.7636 18.2692 38.5102 18.0749 39.3609 18.5579C40.2116 19.0408 40.4198 19.3475 40.2324 20.4272C40.0451 21.5068 40.0048 22.0245 39.8591 22.2312C39.7134 22.438 39.1944 22.5005 38.9668 22.4186C38.7392 22.3367 38.8627 22.1063 38.8627 22.1063C38.8627 22.1063 39.465 21.504 39.1944 21.0267C38.9238 20.5493 38.531 20.7574 38.4062 21.0267C38.2813 21.2959 38.3437 21.5249 38.1564 21.5249C37.969 21.5249 37.8039 21.3861 37.7622 21.0891C37.7206 20.7921 37.5763 20.534 37.4514 20.4868C37.3265 20.4396 37.0156 20.7158 37.0351 20.2384C37.0423 19.963 37.1448 19.6987 37.3251 19.4904L37.1391 19.5112Z" fill="#BC9434" stroke="#BC9434" stroke-width="0.561983" stroke-miterlimit="10"/>
<path d="M35.7485 21.5637C35.7432 21.4315 35.7866 21.3019 35.8705 21.1996C35.9544 21.0972 36.073 21.0293 36.2037 21.0086" stroke="#BC9434" stroke-width="0.561983" stroke-miterlimit="10"/>
<path d="M36.2384 21.7691C36.2787 21.8815 36.2662 21.9898 36.212 22.0092C36.1579 22.0286 36.083 21.9509 36.0427 21.8371C36.0025 21.7233 36.015 21.6165 36.0691 21.597C36.1232 21.5776 36.1996 21.6553 36.2384 21.7691Z" fill="#BC9434"/>
<path d="M40.3975 22.7059L38.5921 25.0095L38.9237 26.2349L41.0414 23.2873L40.3975 22.7059Z" fill="white" stroke="#BC9434" stroke-width="0.561983" stroke-linejoin="round"/>
<path d="M38.5976 27.1092C38.629 27.2134 38.688 27.3071 38.7684 27.3804C38.8488 27.4537 38.9476 27.5038 39.0542 27.5255C39.4191 27.5935 40.0575 27.3201 40.3767 26.4986C40.6959 25.677 41.3578 23.4192 41.745 22.871C42.1322 22.3228 43.4103 22.302 44.0723 22.3464C44.7342 22.3908 45.1894 21.7539 45.8056 21.4569C46.1665 21.2815 46.5506 21.1586 46.9463 21.0919L47.7234 19.5113L46.1039 19.4655C46.1039 19.4655 44.5066 20.219 44.0959 20.6978C43.6851 21.1766 43.3895 21.1141 42.5222 21.2904C41.6548 21.4666 41.1774 21.8385 40.8347 22.8877C40.4919 23.9368 40.0367 26.5832 39.5343 26.9482C39.4059 27.0546 39.2518 27.1255 39.0875 27.1538C38.9231 27.182 38.7542 27.1666 38.5976 27.1092Z" fill="#BC9434" stroke="#BC9434" stroke-width="0.561983" stroke-linejoin="round"/>
<path d="M32.9897 25.3898C33.177 25.5854 33.2048 25.863 33.0507 26.0129C32.8967 26.1627 32.6178 26.1253 32.4304 25.931C32.2431 25.7367 32.2153 25.4578 32.3694 25.3079C32.5234 25.158 32.801 25.201 32.9897 25.3898Z" fill="white" stroke="#BC9434" stroke-width="0.561983" stroke-linejoin="round"/>
<path d="M32.8412 25.7686L32.5401 25.4494C32.5401 25.4494 31.9211 23.8368 31.0954 23.4053C30.2697 22.9737 29.2761 23.6301 29.0693 24.249C28.8625 24.8679 29.5953 25.9004 30.3641 26.2196C30.9815 26.4509 31.6151 26.6364 32.2597 26.7747C32.2597 26.7747 32.6164 25.9379 32.8412 25.7686Z" fill="white" stroke="#BC9434" stroke-width="0.561983" stroke-linejoin="round"/>
<path d="M31.7712 26.6318L31.8032 26.6734C32.0738 26.7414 32.2597 26.7817 32.2597 26.7817C32.2597 26.7817 32.6164 25.9379 32.8412 25.7686L32.5401 25.4494C32.5401 25.4494 31.6769 25.5993 31.7712 26.6318Z" fill="#BC9434" stroke="#BC9434" stroke-width="0.561983" stroke-linejoin="round"/>
<path d="M34.7355 28.2638C34.8448 28.4209 34.9709 28.5656 35.1116 28.6954C35.2614 28.8092 35.317 28.9396 35.1296 28.9216C34.9028 28.9162 34.6874 28.8214 34.5301 28.6579C34.3414 28.4525 34.2109 28.2832 34.2109 28.2832L34.7355 28.2638Z" fill="white" stroke="#BC9434" stroke-width="0.561983" stroke-linejoin="round"/>
<path d="M34.8299 27.699C34.8299 27.699 35.0922 28.1306 34.9992 28.243C34.9062 28.3554 34.0416 28.3929 33.9098 28.3554C33.778 28.3179 33.8723 28.1486 33.8723 28.1486L34.8299 27.699Z" fill="white" stroke="#BC9434" stroke-width="0.561983" stroke-linejoin="round"/>
<path d="M34.8104 27.1952C34.8104 27.1952 35.0172 27.5144 34.9797 27.6448C34.9423 27.7753 34.061 28.1708 33.8695 28.1514C33.678 28.1319 33.7016 27.9835 33.7016 27.9835L34.8104 27.1952Z" fill="white" stroke="#BC9434" stroke-width="0.561983" stroke-linejoin="round"/>
<path d="M34.4552 26.8191C34.4552 26.8191 34.7924 26.7817 34.8299 27.0259C34.8674 27.2702 34.6606 27.3451 34.5301 27.4575C34.3997 27.5699 33.8363 27.9835 33.7044 27.9835C33.5726 27.9835 33.3283 27.6074 33.3283 27.6074L34.4552 26.8191Z" fill="white" stroke="#BC9434" stroke-width="0.561983" stroke-linejoin="round"/>
<path d="M32.8412 25.7686C32.8412 25.7686 33.7599 26.1072 34.1915 26.2197C34.6231 26.3321 34.6425 26.6887 34.4552 26.8192C34.2678 26.9496 33.685 27.6643 33.5156 27.7018C33.3463 27.7392 33.0993 27.5519 33.0993 27.5519C33.0993 27.5519 32.5734 27.2882 32.4984 27.0828C32.4527 26.9585 32.3674 26.8527 32.2556 26.7817C32.2556 26.7817 32.2028 26.0129 32.8412 25.7686Z" fill="white" stroke="#BC9434" stroke-width="0.561983" stroke-linejoin="round"/>
<path d="M33.1035 27.5519C33.1035 27.5519 32.9536 27.1952 33.0855 27.1009C33.2173 27.0065 33.4227 27.2133 33.4227 27.2133C33.4526 27.1045 33.5035 27.0027 33.5726 26.9135" stroke="#BC9434" stroke-width="0.561983" stroke-linejoin="round"/>
<path d="M49.8384 28.855C49.888 29.1241 49.9191 29.3962 49.9314 29.6696C49.9161 29.8597 49.5844 30.6507 49.5678 30.6979C49.5511 30.7451 49.6788 30.9352 49.726 30.9977C49.7731 31.0601 49.9952 31.0296 50.1687 31.1711C50.3421 31.3127 50.5475 31.6624 50.8015 31.5875C51.0554 31.5125 51.2178 31.1711 51.2178 31.1711C51.2178 31.1711 51.802 30.8242 51.8173 30.6507C51.8253 30.4369 51.7986 30.2232 51.7382 30.0179C51.691 29.8791 50.9056 28.4914 50.9056 28.4914L49.8384 28.855Z" fill="white" stroke="#BC9434" stroke-width="0.561983" stroke-linejoin="round"/>
<path d="M50.0035 30.555C50.0035 30.555 50.3033 30.6021 50.4309 31.0615" stroke="#BC9434" stroke-width="0.561983" stroke-linejoin="round"/>
<path d="M50.1617 30.7923L49.4817 31.1406L50.1145 32.3257" stroke="#BC9434" stroke-width="1.68595" stroke-linecap="round" stroke-linejoin="round"/>
<path d="M51.8215 30.2233L52.0102 30.1442L52.643 31.4084" stroke="#BC9434" stroke-width="1.68595" stroke-linejoin="round"/>
<path d="M54.9847 30.1398L48.1832 33.1751C47.918 33.2935 47.7989 33.6045 47.9173 33.8698L49.7423 37.9593C49.8607 38.2245 50.1717 38.3436 50.437 38.2252L57.2385 35.1899C57.5037 35.0715 57.6228 34.7605 57.5044 34.4953L55.6794 30.4057C55.561 30.1405 55.25 30.0214 54.9847 30.1398Z" fill="#BC9434" stroke="#BC9434" stroke-width="0.561983" stroke-linejoin="round"/>
</svg>
