<svg width="192" height="147" viewBox="0 0 192 147" fill="none" xmlns="http://www.w3.org/2000/svg">
<path d="M165.432 4.58119H158.743V6.06525L173.469 146.821H180.337L165.432 4.58119Z" fill="#455A64"/>
<path d="M16.0951 4.58119H22.7841V6.09393L9.05486 146.778H2.18664L16.0951 4.58119Z" fill="#455A64"/>
<path d="M16.0951 4.5812C16.0951 4.5812 16.0951 4.83212 16.0378 5.29813C15.9804 5.76414 15.9231 6.50975 15.837 7.44893C15.6578 9.33447 15.3997 12.1162 15.0628 15.6865C14.3458 22.8558 13.378 33.2012 12.152 46.0343C9.65708 71.6718 6.20863 107.196 2.36587 146.771L2.18664 146.563H9.05486L8.86845 146.735C15.3782 80.6478 20.8914 24.6625 22.7268 6.06525C22.7268 5.34832 22.7268 4.94683 22.7268 4.55251L22.777 4.6027H17.7584H16.5253H16.1166H16.511H17.7297L22.8056 4.56687H22.8558V4.62421C22.8558 5.01852 22.8558 5.43436 22.8558 6.13695C21.0563 24.7342 15.6435 80.698 9.23409 146.828V147H1.99306V146.792C5.89318 107.174 9.39898 71.6073 11.9298 45.9411C13.2131 33.1295 14.2383 22.7913 14.9552 15.6435C15.3137 12.0588 15.5933 9.33447 15.7797 7.44893C15.8801 6.52409 15.9517 5.81432 16.0019 5.29813C16.0521 4.78194 16.0951 4.5812 16.0951 4.5812Z" fill="#263238"/>
<path d="M191.436 0H0V6.05807H191.436V0Z" fill="#455A64"/>
<path d="M171.053 6.06526C171.053 6.16563 132.898 6.25167 85.8456 6.25167C38.7932 6.25167 0.623719 6.16563 0.623719 6.06526C0.623719 5.96489 38.7717 5.87885 85.8456 5.87885C132.919 5.87885 171.053 5.95055 171.053 6.06526Z" fill="#263238"/>
</svg>
