<svg width="100" height="32" viewBox="0 0 100 32" fill="none" xmlns="http://www.w3.org/2000/svg">
<path d="M92.4038 8.02753H7.71131C5.7218 8.02753 3.81377 8.81787 2.40697 10.2247C1.00017 11.6315 0.20983 13.5395 0.20983 15.529C0.20983 17.5185 1.00017 19.4266 2.40697 20.8334C3.81377 22.2402 5.7218 23.0305 7.71131 23.0305H47.3445L56.2151 31.4832V23.0305H92.4038C93.3889 23.0305 94.3644 22.8365 95.2745 22.4595C96.1847 22.0825 97.0116 21.5299 97.7082 20.8334C98.4048 20.1368 98.9573 19.3098 99.3343 18.3997C99.7113 17.4896 99.9053 16.5141 99.9053 15.529C99.9053 14.5439 99.7113 13.5684 99.3343 12.6583C98.9573 11.7482 98.4048 10.9212 97.7082 10.2247C97.0116 9.52809 96.1847 8.97553 95.2745 8.59855C94.3644 8.22156 93.3889 8.02753 92.4038 8.02753Z" fill="#FAFAFA"/>
<path d="M92.4038 8.02753H92.6777C92.9527 8.03035 93.2271 8.05202 93.4992 8.09238C94.5693 8.23583 95.5951 8.61218 96.5041 9.19491C97.3735 9.74848 98.1204 10.4742 98.6988 11.3273C99.2772 12.1804 99.6749 13.1429 99.8673 14.1555C100.06 15.1681 100.043 16.2094 99.8175 17.2152C99.5923 18.221 99.1636 19.1701 98.5578 20.004C97.7389 21.1439 96.622 22.0364 95.3295 22.5837C94.6368 22.8641 93.9098 23.0507 93.1677 23.1386C92.3966 23.1962 91.6328 23.1746 90.8401 23.1818H80.6364H56.2007L56.3665 23.0161C56.3665 25.6679 56.3665 28.5359 56.3665 31.4688V31.8651L56.0782 31.5913L47.2004 23.1386L47.3229 23.189H13.6419H7.76175C5.7988 23.2095 3.9025 22.4777 2.4622 21.1439C1.0219 19.81 0.146912 17.9754 0.0168825 16.0166C-0.113147 14.0579 0.511648 12.1237 1.763 10.6112C3.01434 9.09864 4.79728 8.12259 6.74571 7.88341C7.6825 7.78253 8.58325 7.83297 9.49121 7.81856H22.6783L58.9679 7.8618L83.4684 7.91944L90.1195 7.95548H91.849C92.2381 7.95548 92.4399 7.95548 92.4399 7.95548H91.849H90.1195L83.4684 7.9915L58.9679 8.05636H22.6783H9.49121C8.59045 8.05636 7.66808 8.05636 6.79615 8.12121C4.99114 8.34554 3.33556 9.23761 2.15546 10.6217C1.24652 11.6882 0.662763 12.9932 0.473494 14.3817C0.284226 15.7702 0.497407 17.1838 1.08772 18.4547C1.67802 19.7256 2.62067 20.8004 3.8037 21.5515C4.98674 22.3025 6.36046 22.6983 7.76175 22.6918H13.6419H47.3229H47.395L47.4454 22.735L56.316 31.1949L56.0278 31.3174C56.0278 28.3846 56.0278 25.5166 56.0278 22.8648V22.7062H56.1863H80.622H90.8257C91.6112 22.7062 92.3894 22.7062 93.1317 22.7062C93.8558 22.6258 94.5658 22.4489 95.243 22.1802C96.7369 21.5515 97.9847 20.4524 98.797 19.0498C99.6093 17.6473 99.9416 16.0179 99.7435 14.4093C99.5453 12.8007 98.8276 11.3007 97.6993 10.1372C96.571 8.97362 95.0937 8.21014 93.492 7.96268C92.7786 8.03474 92.4038 8.08518 92.4038 8.02753Z" fill="#263238"/>
<path d="M44.7503 20.8327H7.66087C6.96412 20.8336 6.27404 20.6971 5.63014 20.4309C4.98624 20.1647 4.4012 19.7741 3.90852 19.2814C3.41585 18.7887 3.02521 18.2036 2.75902 17.5597C2.49282 16.9159 2.35628 16.2258 2.35723 15.529C2.36105 14.1256 2.92175 12.781 3.91617 11.7906C4.91059 10.8003 6.25742 10.2451 7.66087 10.247H44.7503C45.4465 10.246 46.136 10.3823 46.7794 10.6481C47.4228 10.9138 48.0076 11.3038 48.5001 11.7957C48.9927 12.2876 49.3835 12.8718 49.6501 13.5149C49.9167 14.158 50.054 14.8473 50.054 15.5434C50.053 16.239 49.9151 16.9275 49.6481 17.5697C49.381 18.212 48.9901 18.7953 48.4976 19.2865C48.0051 19.7776 47.4207 20.1669 46.7777 20.4322C46.1348 20.6975 45.4459 20.8336 44.7503 20.8327Z" fill="#FED36A"/>
<path d="M47.8561 0.29544L46.6023 4.12904H45.6511L44.808 1.53488L43.936 4.12904H42.9921L41.731 0.29544H42.6822L43.5469 2.99049L44.4477 0.29544H45.2692L46.1483 3.01212L47.0346 0.29544H47.8561Z" fill="#263238"/>
<path d="M48.0651 2.21225C48.042 1.79337 48.1452 1.3772 48.3611 1.01753C48.5771 0.657868 48.8959 0.371241 49.2765 0.194706C49.6571 0.0181704 50.0818 -0.0401621 50.4959 0.0272549C50.9099 0.094672 51.2943 0.284733 51.5992 0.572875C51.9041 0.861018 52.1155 1.23399 52.2062 1.64359C52.297 2.05318 52.2627 2.48057 52.1079 2.8705C51.9532 3.26043 51.685 3.59497 51.3382 3.8309C50.9913 4.06682 50.5816 4.19328 50.1621 4.19391C49.8923 4.20964 49.6222 4.17002 49.3683 4.07749C49.1144 3.98497 48.8821 3.8415 48.6857 3.65589C48.4893 3.47029 48.3329 3.24647 48.2262 2.99821C48.1195 2.74994 48.0647 2.48248 48.0651 2.21225ZM51.3583 2.21225C51.3526 1.97698 51.2776 1.7486 51.1428 1.55571C51.008 1.36283 50.8192 1.214 50.6002 1.12786C50.3812 1.04173 50.1416 1.02212 49.9115 1.07148C49.6814 1.12084 49.471 1.23698 49.3066 1.40536C49.1422 1.57374 49.031 1.78689 48.9872 2.01811C48.9433 2.24933 48.9686 2.48835 49.0599 2.70525C49.1513 2.92215 49.3045 3.1073 49.5006 3.23751C49.6966 3.36772 49.9267 3.43721 50.1621 3.43728C50.3203 3.43747 50.477 3.40547 50.6225 3.34323C50.7681 3.281 50.8994 3.18982 51.0086 3.07524C51.1178 2.96066 51.2025 2.82506 51.2577 2.67671C51.3128 2.52835 51.3373 2.37034 51.3294 2.21225H51.3583Z" fill="#263238"/>
<path d="M55.372 4.12904L54.6514 3.06255H53.8371V4.12904H52.9508V0.29544H54.6082C55.6314 0.29544 56.2728 0.828681 56.2728 1.6862C56.2841 1.94559 56.2137 2.20198 56.0715 2.4192C55.9292 2.63641 55.7224 2.80348 55.4801 2.89682L56.3448 4.12904H55.372ZM54.5361 1.01604H53.8155V2.35637H54.5361C55.0766 2.35637 55.3504 2.10415 55.3504 1.6862C55.3504 1.26825 55.0766 1.01604 54.5361 1.01604Z" fill="#263238"/>
<path d="M58.3481 2.62299L57.8293 3.15624V4.12904H56.9501V0.29544H57.8149V2.08253L59.5155 0.29544H60.5027L58.9102 2.00327L60.5964 4.12904H59.5587L58.3481 2.62299Z" fill="#263238"/>
<path d="M82.6901 16.9342H81.5948L81.3282 18.3177H80.5499L80.8309 16.9342H77.7179L77.8188 16.3793L81.3786 12.7115H82.3154L78.9069 16.2496H81.0183L81.2633 15.0318H81.9839L81.7389 16.2496H82.8054L82.6901 16.9342Z" fill="#263238"/>
<path d="M84.996 13.4104L84.5348 14.9453H85.0753C86.5165 14.9453 87.1578 15.5362 87.1578 16.4442C87.1578 17.6044 86.2067 18.3754 84.7726 18.3754C84.414 18.3963 84.0548 18.3432 83.7176 18.2192C83.3804 18.0952 83.0723 17.9031 82.8126 17.6548L83.2378 17.0351C83.4455 17.2431 83.6946 17.4051 83.9689 17.5106C84.2433 17.6162 84.5367 17.6628 84.8303 17.6476C85.7959 17.6476 86.358 17.2224 86.358 16.509C86.358 15.9542 85.9616 15.6227 84.9168 15.6227H83.562L84.434 12.6898H87.5902L87.4605 13.4104H84.996Z" fill="#263238"/>
<path d="M88.0802 14.4985C88.0564 14.2768 88.0776 14.0525 88.1426 13.8391C88.2075 13.6257 88.3149 13.4277 88.4582 13.2568C88.6015 13.0859 88.7778 12.9457 88.9766 12.8445C89.1754 12.7434 89.3926 12.6834 89.6151 12.6682C89.7726 12.6619 89.9296 12.6898 90.0752 12.7501C90.2208 12.8104 90.3516 12.9016 90.4586 13.0174C90.5655 13.1332 90.6459 13.2709 90.6944 13.4209C90.7428 13.5708 90.7582 13.7296 90.7392 13.886C90.7641 14.1074 90.7438 14.3315 90.6797 14.5449C90.6156 14.7582 90.509 14.9564 90.3662 15.1274C90.2235 15.2984 90.0476 15.4388 89.8492 15.54C89.6507 15.6412 89.4338 15.7012 89.2116 15.7164C89.0538 15.7226 88.8966 15.6946 88.7507 15.6343C88.6047 15.5741 88.4736 15.483 88.3661 15.3674C88.2587 15.2517 88.1775 15.1142 88.1281 14.9642C88.0788 14.8143 88.0624 14.6554 88.0802 14.4985ZM93.0524 12.7114H93.6937L88.8008 18.3177H88.1451L93.0524 12.7114ZM90.242 13.9293C90.242 13.396 89.997 13.1222 89.5935 13.1222C88.9449 13.1222 88.6279 13.8428 88.6279 14.4553C88.6279 15.0678 88.8729 15.2624 89.2764 15.2624C89.9178 15.2912 90.242 14.5706 90.242 13.9293ZM91.1284 17.1432C91.1035 16.9216 91.124 16.6973 91.1887 16.4839C91.2533 16.2705 91.3607 16.0725 91.5042 15.9019C91.6478 15.7314 91.8247 15.5918 92.0239 15.4918C92.2232 15.3917 92.4407 15.3333 92.6632 15.32C92.8205 15.3135 92.9773 15.3414 93.1226 15.4017C93.2679 15.4621 93.3983 15.5534 93.5047 15.6694C93.6111 15.7854 93.6909 15.9232 93.7384 16.0732C93.786 16.2232 93.8003 16.3818 93.7802 16.5378C93.805 16.7588 93.7847 16.9826 93.7206 17.1955C93.6564 17.4085 93.5496 17.6061 93.4068 17.7766C93.264 17.9471 93.088 18.0867 92.8896 18.1872C92.6912 18.2876 92.4745 18.3468 92.2525 18.361C92.0941 18.3697 91.9357 18.3434 91.7886 18.284C91.6415 18.2247 91.5092 18.1336 91.4012 18.0174C91.2933 17.9012 91.2122 17.7626 91.1638 17.6115C91.1154 17.4604 91.1008 17.3005 91.1212 17.1432H91.1284ZM93.2902 16.5739C93.2902 16.0478 93.038 15.7668 92.6416 15.7668C92.0003 15.7668 91.6688 16.4874 91.6688 17.1071C91.6688 17.7269 91.9282 17.9142 92.3174 17.9142C92.9299 17.9142 93.2541 17.1864 93.2541 16.5739H93.2902Z" fill="#263238"/>
<g opacity="0.3">
<path d="M9.09487 10.2326L5.65759 20.8327H9.09487L12.3232 10.2326H9.09487Z" fill="white"/>
</g>
<g opacity="0.3">
<path d="M17.5836 10.2326L14.1463 20.8327H17.5836L20.8119 10.2326H17.5836Z" fill="white"/>
</g>
<g opacity="0.3">
<path d="M26.0651 10.2326L22.635 20.8327H26.0651L29.3006 10.2326H26.0651Z" fill="white"/>
</g>
<g opacity="0.3">
<path d="M34.5538 10.2326L31.1237 20.8327H34.5538L37.7893 10.2326H34.5538Z" fill="white"/>
</g>
<g opacity="0.3">
<path d="M43.0425 10.2326L39.6052 20.8327H43.0425L46.278 10.2326H43.0425Z" fill="white"/>
</g>
</svg>
