<svg width="190" height="273" viewBox="0 0 190 273" fill="none" xmlns="http://www.w3.org/2000/svg">
<path d="M10.1305 186.506C10.1305 186.506 28.2908 194.687 47.2039 194.687C64.7118 194.687 83.2449 185.875 83.2449 185.875L10.1305 186.506Z" fill="#3A3E47"/>
<path d="M49.1755 186.664H41.6762V265.22H49.1755V186.664Z" fill="#3A3E47"/>
<path d="M78.6994 260.61H12.1379V265.213H78.6994V260.61Z" fill="#3A3E47"/>
<path d="M20.2825 266.726C20.2853 267.732 19.9894 268.716 19.4323 269.554C18.8752 270.392 18.0818 271.046 17.1529 271.433C16.2239 271.82 15.201 271.922 14.2138 271.727C13.2266 271.532 12.3196 271.048 11.6075 270.337C10.8955 269.626 10.4105 268.72 10.214 267.733C10.0175 266.746 10.1184 265.723 10.5038 264.793C10.8892 263.864 11.5418 263.069 12.379 262.511C13.2162 261.953 14.2002 261.655 15.2065 261.657C16.5509 261.659 17.8398 262.193 18.7911 263.143C19.7425 264.093 20.2787 265.381 20.2825 266.726Z" fill="#263238"/>
<path d="M49.8638 266.726C49.8638 267.731 49.5656 268.714 49.0071 269.55C48.4486 270.386 47.6547 271.037 46.7258 271.422C45.797 271.807 44.775 271.907 43.7889 271.711C42.8029 271.515 41.8972 271.031 41.1863 270.32C40.4754 269.609 39.9912 268.703 39.7951 267.717C39.599 266.731 39.6996 265.709 40.0844 264.781C40.4691 263.852 41.1206 263.058 41.9565 262.499C42.7925 261.941 43.7752 261.643 44.7806 261.643C46.1287 261.643 47.4217 262.178 48.3749 263.131C49.3282 264.085 49.8638 265.378 49.8638 266.726Z" fill="#263238"/>
<path d="M84.1268 266.726C84.1268 267.731 83.8286 268.714 83.2701 269.55C82.7115 270.386 81.9177 271.037 80.9888 271.422C80.06 271.807 79.038 271.907 78.0519 271.711C77.0659 271.515 76.1601 271.031 75.4492 270.32C74.7384 269.609 74.2542 268.703 74.0581 267.717C73.862 266.731 73.9626 265.709 74.3473 264.781C74.7321 263.852 75.3836 263.058 76.2195 262.499C77.0554 261.941 78.0382 261.643 79.0436 261.643C80.3917 261.643 81.6847 262.178 82.6379 263.131C83.5912 264.085 84.1268 265.378 84.1268 266.726Z" fill="#263238"/>
<path d="M47.1967 214.933H36.9945V219.156H47.1967V214.933Z" fill="#3A3E47"/>
<path d="M38.8514 211.98H35.1376V222.11H38.8514V211.98Z" fill="#3A3E47"/>
<path d="M8.35245 66.9408H38.8084V176.512H0.0358484V75.2503C0.0396441 73.0464 0.917303 70.934 2.47635 69.3763C4.0354 67.8186 6.14857 66.9427 8.35245 66.9408Z" fill="#455A64"/>
<path d="M8.61055 174.849C8.51018 174.849 8.42415 151.075 8.42415 121.752C8.42415 92.4283 8.51018 68.6472 8.61055 68.6472C8.71092 68.6472 8.79696 92.4212 8.79696 121.752C8.79696 151.082 8.69658 174.849 8.61055 174.849Z" fill="#263238"/>
<path d="M0.0358441 176.29H95.9707V188.206H5.73559C4.21442 188.206 2.75554 187.601 1.67991 186.526C0.604279 185.45 0 183.991 0 182.47V176.261L0.0358441 176.29Z" fill="#455A64"/>
<path d="M54.3375 23.63L50.1792 63.27C49.4623 70.0165 49.8136 80.061 60.5248 80.6919C69.8451 80.5413 73.1144 72.0168 73.7668 65.7292C74.0823 62.7395 74.3404 60.2517 74.3978 59.9506C74.3978 59.9506 84.5856 60.0581 86.3636 50.1427C87.224 45.3535 88.1847 35.3449 88.9518 26.2827C89.3487 21.5864 87.9623 16.9129 85.0686 13.1928C82.1749 9.47274 77.9862 6.97898 73.3367 6.20811L72.376 6.04322C61.9444 4.91044 55.162 13.1482 54.3375 23.63Z" fill="#FFBE9D"/>
<path d="M74.3978 59.9291C69.8114 59.154 65.5438 57.0787 62.1021 53.9497C62.1021 53.9497 64.045 61.7286 74.1038 62.4886L74.3978 59.9291Z" fill="#EB996E"/>
<path d="M71.4941 28.7776C71.279 28.9569 70.2108 27.9245 68.5403 27.7237C66.8698 27.523 65.5434 28.2328 65.3857 28.0033C65.3069 27.8958 65.5506 27.5445 66.1027 27.2147C66.881 26.7881 67.7748 26.6199 68.655 26.7343C69.5262 26.8437 70.3399 27.228 70.9779 27.8313C71.4726 28.2973 71.6017 28.6916 71.4941 28.7776Z" fill="#263238"/>
<path d="M71.3292 32.6133C71.2742 32.9639 71.0846 33.2791 70.8008 33.492C70.5169 33.7049 70.1612 33.7987 69.8093 33.7533C69.637 33.738 69.4694 33.6887 69.3164 33.6081C69.1633 33.5275 69.0278 33.4173 68.9177 33.2839C68.8076 33.1505 68.7252 32.9965 68.6752 32.8309C68.6251 32.6653 68.6085 32.4914 68.6263 32.3194C68.683 31.9697 68.873 31.6555 69.1564 31.4429C69.4399 31.2304 69.7946 31.1359 70.1462 31.1794C70.3186 31.1947 70.4861 31.244 70.6392 31.3246C70.7922 31.4052 70.9277 31.5154 71.0378 31.6488C71.1479 31.7823 71.2303 31.9362 71.2804 32.1018C71.3304 32.2674 71.347 32.4413 71.3292 32.6133Z" fill="#263238"/>
<path d="M74.6128 40.8367C75.4589 40.7203 76.3161 40.7082 77.1652 40.8009C77.5595 40.8009 77.9467 40.8009 78.0542 40.5571C78.1521 40.1576 78.1271 39.7378 77.9825 39.3526L77.3301 36.1981C76.4267 31.7028 75.846 28.0392 76.0324 28.0034C76.2188 27.9675 77.0863 31.5881 77.9825 36.069C78.1976 37.1803 78.3983 38.2199 78.5919 39.2451C78.7583 39.7565 78.738 40.3103 78.5346 40.8081C78.4579 40.9341 78.3535 41.041 78.2292 41.1205C78.105 41.2001 77.9642 41.2501 77.8176 41.2669C77.5915 41.2964 77.3626 41.2964 77.1365 41.2669C76.2808 41.2275 75.4333 41.083 74.6128 40.8367Z" fill="#263238"/>
<path d="M71.3651 22.4183C71.1643 22.7768 69.8523 22.3681 68.2392 22.3036C66.626 22.2391 65.2782 22.4685 65.1204 22.0957C65.0559 21.9165 65.3355 21.601 65.9163 21.3214C66.6696 20.9748 67.4977 20.822 68.3252 20.8769C69.1536 20.9204 69.9586 21.1666 70.6696 21.5938C71.2073 21.9021 71.4511 22.2463 71.3651 22.4183Z" fill="#263238"/>
<path d="M86.973 26.9853C86.7723 27.272 85.4961 26.8132 83.9188 26.6196C82.3415 26.426 81.008 26.5049 80.8646 26.1751C80.8073 26.0174 81.0941 25.7736 81.6676 25.5801C82.4398 25.3543 83.2513 25.2956 84.0479 25.408C84.8518 25.5112 85.6256 25.7797 86.3206 26.1966C86.844 26.5336 87.0662 26.849 86.973 26.9853Z" fill="#263238"/>
<path d="M53.9217 31.1006C53.764 30.993 47.4333 27.946 46.5228 34.7714C45.6123 41.5967 52.6527 41.102 52.6886 40.9084C52.7244 40.7149 53.9217 31.1006 53.9217 31.1006Z" fill="#FFBE9D"/>
<path d="M50.9535 38.0478C50.9535 38.0478 50.8173 38.1123 50.6094 38.1769C50.3089 38.26 49.9879 38.224 49.7132 38.0765C48.9963 37.718 48.5733 36.492 48.7095 35.2589C48.7686 34.6695 48.9597 34.101 49.2687 33.5956C49.3607 33.3907 49.5017 33.2116 49.6792 33.0741C49.8568 32.9366 50.0654 32.8448 50.2868 32.8069C50.427 32.7886 50.5693 32.8202 50.6886 32.8962C50.8079 32.9722 50.8966 33.0879 50.9392 33.2228C51.0109 33.4235 50.9392 33.5597 50.9822 33.5741C51.0252 33.5884 51.1471 33.4809 51.1256 33.1869C51.1141 33.0138 51.0402 32.8508 50.9177 32.7281C50.7477 32.5599 50.5187 32.4647 50.2796 32.4628C49.9919 32.4825 49.7139 32.575 49.4718 32.7318C49.2297 32.8886 49.0315 33.1044 48.8959 33.359C48.5254 33.9089 48.2964 34.5418 48.2291 35.2015C48.0929 36.5852 48.6234 37.969 49.5698 38.3848C49.7459 38.4625 49.9372 38.4997 50.1295 38.4934C50.3219 38.4872 50.5104 38.4379 50.6811 38.3489C50.9177 38.2127 50.9966 38.0622 50.9535 38.0478Z" fill="#EB996E"/>
<path d="M72.5552 45.4037C72.6484 45.2388 71.3436 44.6867 70.5119 43.3604C70.172 42.7729 69.9093 42.1439 69.7304 41.4891C69.5799 40.9729 69.458 40.6431 69.3791 40.6575C69.3003 40.6718 69.2931 41.016 69.3791 41.568C69.4643 42.3071 69.7089 43.019 70.0961 43.6543C70.4899 44.2944 71.0532 44.813 71.7235 45.1528C72.1824 45.4109 72.505 45.461 72.5552 45.4037Z" fill="#263238"/>
<path d="M45.8345 19.1634C47.4907 16.8763 48.0857 14.0228 49.1181 11.3988C50.1506 8.77478 51.9071 6.12207 54.6387 5.41946L54.696 5.45531C57.1551 4.73836 60.0803 4.97495 61.8655 6.80317C62.6756 3.28296 66.0596 0.752125 69.6229 0.164227C73.1861 -0.423671 78.7066 0.630244 81.9185 2.31507C84.3992 3.59124 86.6934 5.94284 89.4322 9.34834C90.5932 10.7799 91.634 12.3051 92.5437 13.9081L94.6946 23.5224L91.6547 28.1754C91.4701 28.5008 91.2691 28.8167 91.0525 29.1218L87.7688 39.2236C87.8764 36.3988 88.9877 26.634 89.0952 23.802C86.9857 23.5439 84.9502 22.8621 83.1108 21.7977C81.2713 20.7332 79.666 19.308 78.3912 17.6076C77.0146 15.765 76.0037 13.521 74.0393 12.3165C71.5156 10.7607 68.3037 11.4203 65.3857 12.1373L65.5148 12.0369C63.9949 12.5777 62.593 13.4052 61.3851 14.4745C61.4971 20.0842 60.3991 25.6522 58.166 30.7994C57.8291 31.5737 56.9687 33.151 56.1514 33.3876C54.5598 33.8393 54.2873 32.2333 53.4413 31.3156C52.8176 30.6417 51.8139 30.4625 50.7026 30.3693C50.1537 27.9672 49.7468 25.535 49.4838 23.0851C48.5346 23.2807 47.553 23.2537 46.616 23.0062L47.6986 20.9701C47.3066 21.2064 46.8694 21.3579 46.4153 21.4146C46.1783 21.4443 45.9381 21.3969 45.7301 21.2794C45.5222 21.1619 45.3577 20.9805 45.261 20.7622C45.0817 20.2101 45.4904 19.6437 45.8345 19.1634Z" fill="#263238"/>
<path d="M64.9197 8.23706C64.5376 8.48599 64.1734 8.7615 63.8299 9.06155C62.9531 9.94318 62.3206 11.0377 61.9945 12.2376C61.7453 13.0577 61.5796 13.9008 61.4998 14.7541C61.4138 15.679 61.3995 16.6684 61.3708 17.7151C61.3628 18.8134 61.2862 19.9101 61.1414 20.9988C61.0559 21.5759 60.9289 22.1462 60.7614 22.7051C60.6161 23.3071 60.3201 23.8622 59.9011 24.3182C59.7113 24.4932 59.4799 24.6166 59.2289 24.6768C58.9779 24.7371 58.7157 24.7321 58.4672 24.6624C57.9842 24.527 57.5603 24.2343 57.2627 23.8307C56.7925 23.0336 56.5449 22.1249 56.5457 21.1995L56.7465 21.2425C56.3672 21.9704 55.8842 22.6394 55.3126 23.2285C54.7696 23.7724 54.0376 24.0857 53.2693 24.1031C52.9138 24.1058 52.5644 24.0116 52.2584 23.8307C51.9756 23.6487 51.7535 23.3867 51.6203 23.0779C51.4968 22.7913 51.4523 22.477 51.4912 22.1674C51.5367 21.8903 51.6759 21.6372 51.8856 21.4504L51.9788 21.558C51.1536 22.3606 50.1206 22.9168 48.9963 23.1639C48.9174 23.1886 48.8351 23.2007 48.7525 23.1998C48.8268 23.1693 48.9035 23.1453 48.9819 23.1281C49.1397 23.0779 49.3691 23.0134 49.6559 22.8987C50.4849 22.5737 51.2406 22.0862 51.8784 21.4648L51.9788 21.5723C51.7955 21.7667 51.6771 22.0131 51.6399 22.2777C51.6026 22.5422 51.6484 22.8118 51.7709 23.0492C51.893 23.3248 52.0953 23.5572 52.3516 23.716C52.629 23.8806 52.9467 23.965 53.2693 23.9598C53.9861 23.9315 54.6654 23.6316 55.1692 23.1209C55.7139 22.5418 56.1726 21.8875 56.5314 21.178L56.7035 20.8697V21.221C56.7191 22.108 56.9662 22.9755 57.4204 23.7375C57.6933 24.085 58.0701 24.3362 58.4958 24.4544C58.7103 24.517 58.9374 24.5228 59.1548 24.4713C59.3722 24.4198 59.5726 24.3127 59.7362 24.1605C60.1224 23.7325 60.3959 23.2151 60.532 22.6549C60.6994 22.1057 60.8264 21.545 60.912 20.9772C61.0562 19.898 61.1352 18.811 61.1485 17.7223C61.1485 16.6756 61.2059 15.6862 61.2991 14.7541C61.3893 13.8876 61.5671 13.0325 61.8296 12.2018C62.1788 10.9847 62.8471 9.88314 63.7654 9.01137C64.1037 8.69001 64.494 8.42822 64.9197 8.23706Z" fill="#455A64"/>
<path d="M94.9383 20.8195L94.8523 20.8769L94.587 21.0346C94.4447 21.1241 94.2962 21.2031 94.1425 21.2712C93.9561 21.3501 93.7482 21.4576 93.5044 21.5365C92.1065 22.0166 90.6118 22.1447 89.1526 21.9093C86.9821 21.5633 84.9579 20.5973 83.3238 19.1275C81.3593 17.3138 79.7857 15.1181 78.6994 12.675C78.0829 11.3988 77.6025 10.1012 77.0576 8.89668C76.5674 7.72428 75.908 6.63006 75.1004 5.6489C74.3806 4.75728 73.4454 4.0639 72.3831 3.63428C71.9032 3.45154 71.3976 3.3451 70.8847 3.31882C70.4028 3.29998 69.9205 3.34579 69.4508 3.45504C68.0319 3.79655 66.7948 4.66227 65.9879 5.87833C65.7175 6.33035 65.4986 6.81133 65.3355 7.31222C65.3308 7.27893 65.3308 7.24514 65.3355 7.21185C65.3355 7.12582 65.3785 7.03262 65.4072 6.91074C65.5217 6.52558 65.6856 6.15686 65.8947 5.8138C66.2283 5.26792 66.6526 4.78299 67.1494 4.37991C67.8076 3.84891 68.5732 3.46729 69.3935 3.26146C70.3939 3.00345 71.4491 3.05597 72.419 3.41203C73.514 3.8506 74.4806 4.55831 75.2294 5.46967C76.0516 6.46421 76.7254 7.57267 77.2297 8.76046C77.7817 9.97928 78.2621 11.2698 78.8715 12.5388C79.9504 14.9508 81.5007 17.1228 83.4313 18.9268C85.0379 20.3833 87.0284 21.3487 89.1669 21.7086C90.6041 21.9572 92.0801 21.8539 93.4686 21.4074C94.4436 21.1135 94.924 20.7622 94.9383 20.8195Z" fill="#455A64"/>
<path d="M86.6934 30.7994C86.4783 30.9858 85.4101 29.9463 83.7396 29.7527C82.0691 29.5591 80.7428 30.2546 80.5922 30.0251C80.5133 29.9176 80.7499 29.5735 81.3091 29.2365C82.0886 28.8133 82.9821 28.6477 83.8615 28.7633C84.7333 28.8658 85.5483 29.2481 86.1844 29.8531C86.6719 30.3334 86.801 30.7349 86.6934 30.7994Z" fill="#263238"/>
<path d="M85.2739 33.911C85.2206 34.2624 85.0315 34.5787 84.7471 34.792C84.4628 35.0052 84.1062 35.0982 83.7539 35.0509C83.5819 35.0357 83.4146 34.9864 83.2619 34.9057C83.1092 34.825 82.9742 34.7147 82.8647 34.5811C82.7551 34.4476 82.6734 34.2935 82.6242 34.128C82.575 33.9624 82.5593 33.7887 82.5781 33.617C82.6331 33.2679 82.8217 32.9538 83.104 32.7411C83.3862 32.5284 83.7401 32.4337 84.0909 32.4771C84.2632 32.4923 84.4308 32.5417 84.5838 32.6223C84.7369 32.7028 84.8724 32.8131 84.9825 32.9465C85.0925 33.0799 85.175 33.2339 85.225 33.3995C85.275 33.5651 85.2916 33.7389 85.2739 33.911Z" fill="#263238"/>
<path d="M91.8626 12.6391C92.5796 13.8508 93.7912 15.0122 95.2036 15.0122C95.7214 14.958 96.2343 14.8646 96.7379 14.7326C97.1967 15.0767 96.9099 16.7401 96.5228 17.1631C96.1645 17.521 95.7759 17.8473 95.3613 18.1381C96.91 19.192 98.4514 18.9124 100.265 18.4607C99.9345 19.934 99.2237 21.2949 98.2035 22.4081C97.1834 23.5212 95.8896 24.3479 94.4508 24.8057C94.0038 24.9884 93.5197 25.0623 93.0386 25.0211C92.5574 24.98 92.0929 24.8251 91.6834 24.5691C91.0872 23.9555 90.7376 23.144 90.7012 22.2893C90.2282 19.2054 90.1391 16.0747 90.4359 12.9689L91.8626 12.6391Z" fill="#263238"/>
<path d="M73.3438 69.2279C73.3438 69.2279 79.653 71.7874 83.2449 80.5199C85.7686 86.6569 99.8064 106.029 99.8064 106.029L137.131 114.317L138.407 126.225L78.7066 125.731L70.4115 99.3111L73.3438 69.2279Z" fill="#FED36A"/>
<path d="M48.2076 58.2227L41.583 61.0045C35.4531 63.5712 27.6097 69.486 24.9785 75.5944C18.6622 90.3062 12.9409 109.212 10.7471 125.939C8.53169 142.808 12.9409 167.772 12.9409 167.772L68.9633 135.761L65.6868 133.474L76.3048 75.7163L74.3261 68.726L75.6453 62.8112C75.6453 62.8112 60.7829 56.8462 49.957 52.566L48.2076 58.2227Z" fill="#FED36A"/>
<g opacity="0.3">
<path d="M42.8592 151.082C43.0647 148.214 43.2702 145.33 43.4758 142.428C42.8187 143.054 41.9587 143.423 41.0525 143.468C42.454 142.13 43.6976 140.636 44.7591 139.016L42.2068 140.113C43.1069 139.42 43.8417 138.536 44.3576 137.524C42.9882 136.456 41.0596 136.635 39.339 136.807C30.4846 137.704 21.5515 137.109 12.6613 136.514C11.7709 136.463 10.9023 136.218 10.1161 135.797C10.1161 135.797 9.9369 133.359 10.3312 132.448C10.7255 131.538 11.3421 131.803 12.2742 131.466C13.2204 131.178 14.2032 131.029 15.1921 131.022C26.0109 130.448 36.8512 131.337 47.6484 132.233C48.3216 132.223 48.9828 132.413 49.5483 132.778C50.4302 133.495 50.3513 134.843 50.2007 135.969C49.6463 140.012 49.0966 144.053 48.5517 148.092" fill="black"/>
</g>
<path d="M75.6453 73.3934C75.6446 73.5761 75.6278 73.7585 75.5951 73.9383L75.3656 75.4797C75.1649 76.8132 74.8423 78.749 74.4193 81.1292C73.5733 85.897 72.3043 92.457 70.8345 99.6839C69.3648 106.911 67.8735 113.442 66.8053 118.16C66.2676 120.49 65.8302 122.39 65.5148 123.745C65.3642 124.376 65.2423 124.877 65.1491 125.257C65.1158 125.437 65.0629 125.613 64.9914 125.781C65.0101 125.6 65.0388 125.421 65.0774 125.243C65.1491 124.856 65.2495 124.347 65.3785 123.716C65.6582 122.347 66.0955 120.447 66.5472 118.102L70.433 99.6265C71.9386 92.3997 73.2506 85.8468 74.1612 81.0934C74.5985 78.749 74.9641 76.8347 75.2222 75.4654C75.3441 74.8344 75.4445 74.3254 75.5162 73.9383C75.5408 73.7527 75.584 73.5702 75.6453 73.3934Z" fill="#263238"/>
<path d="M24.9785 155.391C25.0788 155.267 25.1917 155.154 25.3155 155.054L26.3192 154.129C26.7493 153.727 27.2942 153.247 27.9467 152.695C28.5991 152.143 29.316 151.526 30.162 150.888C31.8182 149.562 33.8615 148.078 36.1916 146.522C38.5216 144.966 41.2102 143.389 44.0278 141.869C46.8454 140.349 49.706 139.087 52.3014 138.019C54.8968 136.951 57.277 136.126 59.306 135.51C60.3097 135.173 61.2417 134.929 62.0519 134.7C62.862 134.47 63.5647 134.291 64.1382 134.155L65.4717 133.854C65.6229 133.806 65.7794 133.777 65.9378 133.768C65.793 133.835 65.6416 133.888 65.4861 133.925L64.1741 134.298C63.6077 134.456 62.9122 134.649 62.1093 134.9C61.3063 135.151 60.3886 135.409 59.3848 135.761C57.3774 136.413 55.0115 137.281 52.4304 138.342C49.8494 139.403 47.0605 140.701 44.207 142.199C41.3536 143.697 38.7224 145.289 36.378 146.809C34.0335 148.329 31.9902 149.806 30.3198 151.111C29.4666 151.734 28.7353 152.351 28.0757 152.867C27.4161 153.383 26.8641 153.857 26.4124 154.237L25.3656 155.104C25.2472 155.213 25.1174 155.309 24.9785 155.391Z" fill="#263238"/>
<path d="M53.7353 134.248C53.7855 134.341 48.3367 137.403 41.5472 141.088C34.7577 144.773 29.2515 147.691 29.2013 147.598C29.1511 147.504 34.5999 144.45 41.3894 140.758C48.1789 137.066 53.6851 134.162 53.7353 134.248Z" fill="#263238"/>
<g opacity="0.3">
<path d="M34.0479 89.9979C37.5251 105.054 48.1574 118.489 62.31 124.619C52.1287 113.721 42.687 102.155 34.0479 89.9979Z" fill="black"/>
</g>
<g opacity="0.3">
<path d="M74.7562 78.5554C76.1256 84.9219 75.1075 92.8944 71.8884 98.5367L71.0926 96.8878C72.2182 92.1057 73.8314 83.6242 74.7276 78.5554" fill="black"/>
</g>
<path d="M104.538 230.477L97.8205 250.68C97.8205 250.68 116.11 264.302 115.228 268.152L75.5807 256.538L84.7505 224.619L104.538 230.477Z" fill="#455A64"/>
<g opacity="0.3">
<path d="M104.538 230.477L97.8205 250.68C97.8205 250.68 116.11 264.302 115.228 268.152L75.5807 256.538L84.7505 224.619L104.538 230.477Z" fill="black"/>
</g>
<path d="M86.0625 245.375C85.6473 245.379 85.2481 245.536 84.9422 245.817C84.6363 246.097 84.4454 246.482 84.4064 246.895C84.3941 247.31 84.5423 247.713 84.82 248.022C85.0978 248.33 85.4837 248.52 85.8976 248.551C86.3381 248.546 86.761 248.377 87.0842 248.078C87.4074 247.778 87.6079 247.37 87.647 246.931C87.6139 246.497 87.4137 246.093 87.0887 245.805C86.7637 245.516 86.3393 245.364 85.9048 245.382" fill="#E0E0E0"/>
<g opacity="0.6">
<path d="M75.5807 256.538L76.6275 253.355L114.253 265.679C114.253 265.679 115.794 266.962 115.228 268.152L75.5807 256.538Z" fill="white"/>
</g>
<path d="M98.5231 250.666C98.4586 250.86 97.4692 250.666 96.3292 251.01C95.1893 251.354 94.4508 252.014 94.2931 251.885C94.1354 251.756 94.7519 250.723 96.1357 250.336C97.5194 249.949 98.6163 250.501 98.5231 250.666Z" fill="#263238"/>
<path d="M102.18 253.606C102.18 253.806 101.233 253.892 100.337 254.516C99.4408 255.14 98.9963 255.95 98.8027 255.885C98.6091 255.821 98.8027 254.695 99.9426 253.935C101.083 253.175 102.23 253.419 102.18 253.606Z" fill="#263238"/>
<path d="M103.083 259.277C102.896 259.277 102.911 258.223 103.714 257.305C104.517 256.387 105.556 256.23 105.585 256.416C105.614 256.602 104.868 257.004 104.244 257.764C103.621 258.524 103.284 259.312 103.083 259.277Z" fill="#263238"/>
<path d="M99.5412 245.884C99.4121 246.042 98.6019 245.511 97.4835 245.267C96.3651 245.024 95.4115 245.117 95.3327 244.916C95.2538 244.715 96.3005 244.271 97.6126 244.579C98.9246 244.887 99.6845 245.769 99.5412 245.884Z" fill="#263238"/>
<path d="M116.103 239.496L115.264 260.775C115.264 260.775 136.615 268.769 136.837 272.719L95.5262 272.576L95.4474 239.367L116.103 239.496Z" fill="#455A64"/>
<path d="M102.495 258.94C102.096 259.058 101.756 259.32 101.539 259.675C101.322 260.03 101.243 260.452 101.319 260.861C101.424 261.263 101.68 261.61 102.034 261.829C102.388 262.048 102.812 262.122 103.219 262.037C103.64 261.91 103.998 261.631 104.224 261.255C104.451 260.879 104.53 260.432 104.445 260.001C104.294 259.593 103.991 259.259 103.599 259.071C103.207 258.882 102.757 258.853 102.344 258.99" fill="#E0E0E0"/>
<g opacity="0.6">
<path d="M95.5262 272.576L95.6481 269.228L135.216 270.612C135.216 270.612 137.052 271.422 136.837 272.719L95.5262 272.576Z" fill="white"/>
</g>
<path d="M115.938 260.567C115.938 260.768 114.92 260.854 113.923 261.499C112.927 262.144 112.396 262.99 112.21 262.933C112.023 262.876 112.331 261.686 113.55 260.926C114.769 260.166 115.981 260.381 115.938 260.567Z" fill="#263238"/>
<path d="M120.261 262.374C120.304 262.567 119.429 262.904 118.741 263.758C118.053 264.611 117.852 265.514 117.651 265.5C117.451 265.485 117.329 264.353 118.203 263.306C119.078 262.259 120.261 262.18 120.261 262.374Z" fill="#263238"/>
<path d="M122.691 267.565C122.505 267.608 122.233 266.597 122.749 265.5C123.265 264.403 124.219 263.958 124.305 264.123C124.391 264.288 123.803 264.883 123.387 265.794C122.971 266.704 122.906 267.55 122.691 267.565Z" fill="#263238"/>
<path d="M115.586 255.692C115.5 255.878 114.576 255.599 113.436 255.692C112.296 255.785 111.407 256.122 111.285 255.95C111.163 255.778 112.002 255.061 113.385 254.989C114.769 254.918 115.687 255.534 115.586 255.692Z" fill="#263238"/>
<path d="M66.6117 135.295C66.6117 135.295 116.131 148.2 122.283 156.739C127.473 163.987 100.215 237.998 100.215 237.998L78.7066 236.141L87.9839 174.211L32.4993 156.574L40.8804 135.266L66.6117 135.295Z" fill="#263238"/>
<path d="M70.1606 146.895C70.1606 146.895 120.784 159.191 125.903 167.93C128.291 172.01 126.721 185.402 125.832 191.726C125.229 195.984 116.282 255.577 116.282 255.577H94.3934L94.8738 188.27L42.2785 177.666C42.2785 177.666 14.045 179.817 12.9409 167.772L24.7276 151.799L52.5452 138.055L70.1606 146.895Z" fill="#263238"/>
<path d="M66.3034 145.346C66.3034 145.346 66.5543 145.404 67.0204 145.54L69.1712 146.135L77.4304 148.444C81.0152 149.447 85.4029 150.673 90.4717 152.179C95.5406 153.684 101.283 155.505 107.514 157.864C110.635 159.03 113.856 160.359 117.178 161.85L119.687 162.983C120.533 163.396 121.356 163.853 122.154 164.353C122.969 164.864 123.739 165.444 124.455 166.088C125.199 166.741 125.822 167.52 126.298 168.389C128.004 176.146 126.972 184.628 125.703 193.296C125.151 197.662 124.441 202.114 123.774 206.667C123.107 211.22 122.397 215.88 121.688 220.612C120.254 230.082 118.82 239.89 117.3 249.928C117.013 251.828 116.734 253.72 116.447 255.599V255.764H94.2214V255.577C94.415 230.068 94.5942 206.968 94.7376 188.277L94.8523 188.413L57.4491 180.807L47.2469 178.713L44.5942 178.161C43.992 178.032 43.6909 177.953 43.6909 177.953L44.6014 178.118L47.2684 178.634L57.5136 180.642L94.9025 188.112H95.0172V188.234C94.8953 206.925 94.7448 230.025 94.5799 255.541L94.3935 255.355H116.275L116.095 255.513C116.375 253.627 116.662 251.741 116.941 249.842L121.336 220.526C122.053 215.784 122.751 211.136 123.43 206.581C124.104 202.028 124.821 197.576 125.38 193.21C125.676 191.03 125.965 188.879 126.247 186.757C126.549 184.668 126.736 182.565 126.807 180.455C126.878 178.376 126.878 176.328 126.807 174.311C126.764 173.3 126.706 172.304 126.62 171.314C126.612 170.344 126.415 169.384 126.04 168.489C125.584 167.653 124.984 166.903 124.269 166.274C123.569 165.643 122.816 165.074 122.017 164.575C121.231 164.075 120.417 163.621 119.58 163.213L117.085 162.073C113.773 160.589 110.553 159.248 107.442 158.079C101.226 155.706 95.4832 153.892 90.4287 152.344C85.3742 150.795 80.9865 149.576 77.4089 148.551L69.164 146.228L67.0132 145.597C66.5472 145.432 66.3034 145.346 66.3034 145.346Z" fill="#455A64"/>
<path d="M136.414 114.905C136.736 114.417 140.916 109.592 142.042 109.592C143.167 109.592 144.458 110.883 144.458 110.883C145.211 110.537 146.05 110.425 146.867 110.56C147.835 110.883 152.337 114.74 152.337 116.188V118.604C152.439 119.243 152.439 119.894 152.337 120.533C152.18 121.658 149.469 123.587 149.469 123.587H134.005C134.005 123.587 131.058 121.601 131.424 119.73C131.789 117.859 136.414 114.905 136.414 114.905Z" fill="#FFBE9D"/>
<path d="M144.458 110.883C144.793 111.036 145.115 111.218 145.419 111.427L147.971 113.041C148.266 113.212 148.549 113.404 148.817 113.614C149.102 113.878 149.316 114.208 149.441 114.575C149.539 114.964 149.584 115.364 149.577 115.765L149.642 116.998C149.728 118.683 149.814 120.533 149.907 122.468L149.95 123.343V123.501L149.799 123.537L148.853 123.766H148.81C148.367 123.753 147.941 123.594 147.598 123.315C147.282 123.052 147.017 122.734 146.817 122.375C146.453 121.722 146.181 121.023 146.007 120.296C145.706 119.082 145.528 117.84 145.476 116.59L145.562 116.704L142.859 115.643C142.525 115.526 142.201 115.379 141.891 115.206C142.239 115.276 142.579 115.377 142.909 115.507L145.648 116.46H145.727V116.547C145.81 117.777 146.009 118.996 146.322 120.189C146.498 120.881 146.765 121.546 147.118 122.167C147.272 122.495 147.508 122.777 147.803 122.987C148.099 123.196 148.443 123.327 148.803 123.365H148.76L149.706 123.128L149.563 123.322L149.52 122.44C149.441 120.504 149.355 118.662 149.283 116.97C149.283 116.547 149.283 116.138 149.24 115.736C149.247 115.363 149.211 114.99 149.132 114.625C149.033 114.305 148.853 114.016 148.609 113.786C148.355 113.581 148.089 113.389 147.813 113.213L145.325 111.506C145.019 111.323 144.729 111.115 144.458 110.883Z" fill="#EB996E"/>
<path d="M134.005 123.035C134.345 122.962 134.69 122.916 135.037 122.899L137.855 122.676H137.898C138.946 122.923 140.006 123.114 141.074 123.25C141.69 123.334 142.31 123.384 142.931 123.401C143.233 123.45 143.541 123.432 143.835 123.348C144.129 123.263 144.401 123.115 144.63 122.913C144.822 122.639 144.916 122.308 144.895 121.974C144.895 121.623 144.845 121.257 144.831 120.884C144.79 120.58 144.642 120.301 144.415 120.095C144.189 119.868 143.93 119.675 143.648 119.522C142.625 119.007 141.473 118.802 140.336 118.934C139.928 118.972 139.517 118.913 139.137 118.761C138.756 118.608 138.418 118.368 138.149 118.059C137.812 117.579 137.841 117.228 137.862 117.235C137.957 117.494 138.092 117.736 138.264 117.952C138.532 118.22 138.858 118.424 139.217 118.548C139.576 118.673 139.958 118.714 140.336 118.669C141.523 118.492 142.736 118.682 143.813 119.214C144.125 119.38 144.413 119.59 144.666 119.837C144.964 120.107 145.153 120.477 145.196 120.877C145.196 121.207 145.268 121.594 145.268 121.967C145.288 122.387 145.164 122.802 144.917 123.142C144.667 123.432 144.325 123.627 143.949 123.694C143.611 123.758 143.267 123.78 142.924 123.759C142.264 123.759 141.633 123.673 141.031 123.594C139.951 123.439 138.881 123.221 137.826 122.942H137.869L135.052 123.042C134.703 123.077 134.353 123.074 134.005 123.035Z" fill="#EB996E"/>
<path d="M149.742 122.97C150.1 122.011 150.517 121.075 150.989 120.167C151.353 119.203 151.835 118.288 152.423 117.443C152.176 118.438 151.813 119.4 151.341 120.31C150.975 121.288 150.433 122.189 149.742 122.97Z" fill="#EB996E"/>
<path d="M116.239 126.232L171.939 126.949L189.862 76.6626C190.054 76.1593 190.045 75.6018 189.839 75.1045C189.632 74.6072 189.243 74.2079 188.751 73.9884C188.486 73.8655 188.199 73.799 187.907 73.793C187.615 73.787 187.325 73.8416 187.056 73.9535C186.786 74.0654 186.543 74.2321 186.341 74.4429C186.139 74.6538 185.983 74.9043 185.883 75.1786L168.21 122.798L116.189 123.314C115.808 123.314 115.444 123.466 115.175 123.734C114.906 124.003 114.755 124.368 114.755 124.748C114.748 124.945 114.781 125.141 114.853 125.325C114.926 125.508 115.035 125.674 115.174 125.813C115.313 125.953 115.48 126.062 115.663 126.134C115.846 126.206 116.042 126.239 116.239 126.232Z" fill="#263238"/>
<path d="M33.2377 88.8723C33.2377 88.8723 60.4818 125.91 64.7046 125.91H104.459V110.854L74.3978 103.763C74.3978 103.763 59.5999 73.1496 56.3163 69.2279C53.0327 65.3062 44.2787 60.0223 37.733 65.9299C31.1873 71.8376 33.2377 88.8723 33.2377 88.8723Z" fill="#FED36A"/>
<path d="M104.431 112.338L110.948 111.815C110.948 111.815 111.084 109.399 112.511 108.545C113.937 107.692 113.787 105.842 114.662 105.986C115.135 106.079 115.622 106.079 116.095 105.986L121.494 101.44L126.047 98.4579L129.631 97.7409C129.631 97.7409 131.782 98.3073 129.631 100.293L127.352 101.577L125.366 103.57L129.911 101.333C130.12 101.232 130.349 101.179 130.581 101.179C130.814 101.179 131.043 101.232 131.252 101.333C132.482 101.864 133.654 102.52 134.75 103.29C134.849 103.382 134.927 103.493 134.98 103.616C135.034 103.74 135.061 103.873 135.061 104.007C135.061 104.141 135.034 104.274 134.98 104.398C134.927 104.521 134.849 104.632 134.75 104.724L136.736 106.43C136.736 106.43 137.167 108.71 134.887 108.137L133.044 107.714L130.578 110.108C130.578 110.108 138.83 108.402 139.396 108.674C139.963 108.947 140.68 110.237 139.396 111.37C138.113 112.503 133.137 112.223 132.005 113.363C130.872 114.503 123.344 121.372 121.494 121.795C119.644 122.218 104.474 125.924 104.474 125.924L104.431 112.338Z" fill="#FFBE9D"/>
<path d="M136.679 106.409C136.289 106.171 135.916 105.907 135.561 105.62C135.224 105.369 134.844 105.075 134.356 104.76C134.127 104.602 133.888 104.444 133.639 104.287C133.416 104.121 133.155 104.015 132.879 103.978C132.314 104.1 131.777 104.327 131.295 104.645C130.807 104.91 130.377 105.161 130.011 105.362C129.636 105.626 129.232 105.847 128.807 106.022C129.108 105.674 129.464 105.379 129.861 105.147C130.212 104.903 130.635 104.624 131.123 104.337C131.366 104.193 131.625 104.05 131.897 103.907C132.193 103.735 132.524 103.633 132.865 103.606C132.964 103.586 133.067 103.586 133.166 103.606C133.249 103.633 133.331 103.667 133.41 103.706C133.555 103.776 133.697 103.855 133.833 103.943C134.098 104.107 134.342 104.272 134.55 104.444C135.001 104.774 135.396 105.097 135.718 105.376C136.371 105.964 136.722 106.373 136.679 106.409Z" fill="#EB996E"/>
<path d="M116.712 105.434C116.769 105.52 116.095 106.108 115.278 106.868C114.461 107.628 113.844 108.259 113.765 108.18C114.068 107.569 114.495 107.029 115.02 106.595C115.48 106.075 116.061 105.676 116.712 105.434Z" fill="#EB996E"/>
<path d="M56.3163 69.2279C56.9009 69.948 57.4282 70.7127 57.8936 71.515C58.8328 73.0707 60.1591 75.3937 61.7508 78.3977C64.9555 84.4057 69.3648 93.1166 74.534 103.72L74.4336 103.634L104.502 110.703H104.646V126.154H102.66H68.8701H65.0272C64.8601 126.164 64.6925 126.164 64.5254 126.154C64.3563 126.12 64.1924 126.065 64.0378 125.989C63.7375 125.831 63.4519 125.646 63.1847 125.437C62.685 125.064 62.2063 124.665 61.7508 124.239C60.0094 122.6 58.3557 120.87 56.7967 119.056C53.7425 115.586 51.0611 112.238 48.5876 109.169C43.698 103.018 39.8767 97.9345 37.2526 94.4215L34.2486 90.3492C33.9188 89.8832 33.6679 89.5319 33.4815 89.281C33.2951 89.03 33.2306 88.9081 33.2306 88.9081C33.2306 88.9081 33.3309 89.0229 33.5173 89.2594L34.3132 90.3062L37.3745 94.3211C40.0344 97.8127 43.8916 102.867 48.8027 108.997C51.2618 112.051 53.979 115.385 57.0333 118.848C58.5925 120.646 60.2437 122.361 61.9802 123.988C62.4352 124.405 62.914 124.796 63.4141 125.157C63.6588 125.334 63.9178 125.49 64.1884 125.623C64.4535 125.751 64.7487 125.803 65.0416 125.774H68.8844H102.674H104.474L104.287 125.96C104.287 120.798 104.287 115.751 104.287 110.904L104.424 111.083L74.3619 103.928H74.2902L74.2544 103.864C69.121 93.2457 64.7476 84.5061 61.593 78.4909C60.0229 75.4725 58.7253 73.1424 57.8076 71.5723C57.3415 70.798 56.9902 70.1958 56.7106 69.823C56.431 69.4502 56.3163 69.2279 56.3163 69.2279Z" fill="#263238"/>
<path d="M52.3587 66.8046C52.3587 66.8692 51.4267 66.4963 49.9068 66.1522C49.0138 65.9542 48.1084 65.8177 47.1967 65.7435C46.0823 65.6579 44.963 65.6579 43.8486 65.7435C42.7374 65.8603 41.6371 66.064 40.5578 66.3529C39.6752 66.5939 38.8104 66.8958 37.9696 67.2563C36.5357 67.8801 35.7184 68.4106 35.6825 68.3532C35.8443 68.1904 36.0276 68.0504 36.2274 67.9374C36.7498 67.5931 37.2961 67.2865 37.8621 67.0197C38.7013 66.6161 39.5716 66.2804 40.4646 66.016C41.5591 65.7028 42.6797 65.4892 43.8127 65.3779C44.9479 65.2738 46.0902 65.2738 47.2254 65.3779C48.152 65.4727 49.0699 65.6381 49.9713 65.8726C50.5753 66.0305 51.1671 66.2317 51.7422 66.4748C52.1508 66.6469 52.3731 66.7759 52.3587 66.8046Z" fill="#263238"/>
<path d="M68.9203 110.639C69.3642 109.352 70.0532 108.164 70.9492 107.14C71.7462 106.035 72.7522 105.098 73.9102 104.38C73.9819 104.466 72.6054 105.642 71.236 107.37C69.8666 109.097 69.0278 110.689 68.9203 110.639Z" fill="#263238"/>
<path d="M68.0097 106.022C69.5334 104.672 71.5179 103.961 73.5518 104.036C73.5518 104.15 72.2397 104.287 70.684 104.846C69.1282 105.405 68.0743 106.115 68.0097 106.022Z" fill="#263238"/>
<path d="M93.5546 183.337C92.9811 182.14 91.5902 181.617 90.3212 181.187C65.2782 173.114 38.4069 169.242 12.5179 173.945C9.40636 174.512 6.19443 175.25 3.72096 177.229C1.24748 179.208 -0.236601 182.793 1.08258 185.66L6.39518 187.367C32.9043 184.416 59.6691 184.603 86.1342 187.926C87.9194 188.155 89.7978 188.378 91.4468 187.675C93.0958 186.972 94.3361 184.943 93.5546 183.337Z" fill="#455A64"/>
<path d="M64.4967 175.057C64.4399 175.068 64.3815 175.068 64.3246 175.057L63.8443 174.992L61.9874 174.72C60.3814 174.462 58.0513 174.089 55.1549 173.759C47.6232 172.869 40.0385 172.507 32.4563 172.676C30.2409 172.719 28.0757 172.827 26.0037 172.999C23.9317 173.171 21.91 173.271 19.9814 173.444C19.7428 173.463 19.503 173.463 19.2644 173.444C19.0403 173.422 18.8146 173.422 18.5905 173.444C18.1366 173.475 17.6859 173.542 17.2426 173.644L14.6473 174.189C12.9768 174.562 11.4425 174.971 10.0588 175.43C7.87301 176.111 5.78572 177.075 3.85001 178.297C3.13307 178.735 2.65988 179.115 2.32292 179.38L1.93576 179.674C1.84973 179.738 1.79954 179.774 1.79237 179.767L1.90708 179.645L2.27273 179.323C2.74961 178.912 3.24992 178.528 3.77115 178.175C5.6918 176.888 7.78116 175.872 9.97993 175.157C11.4891 174.65 13.0229 174.219 14.5756 173.867L17.1781 173.307C17.6482 173.189 18.1282 173.115 18.612 173.085C18.8505 173.064 19.0904 173.064 19.3289 173.085C19.5671 173.112 19.8077 173.112 20.0459 173.085C21.9458 172.906 23.9819 172.784 26.0683 172.619C28.1546 172.454 30.3699 172.332 32.5208 172.289C40.0964 172.117 47.6742 172.512 55.1907 173.472C58.0585 173.838 60.4101 174.254 62.0089 174.555L63.8586 174.899L64.3318 174.999L64.4967 175.057Z" fill="#263238"/>
<path d="M1.73502 134.248L44.4221 135.739C44.5708 135.745 44.7167 135.781 44.8503 135.847C44.9839 135.913 45.1022 136.006 45.1975 136.12C45.2929 136.234 45.3631 136.367 45.4037 136.51C45.4442 136.653 45.4543 136.804 45.433 136.951L39.2888 188.141H48.9102L53.8715 131.789C53.9275 131.334 53.8883 130.873 53.7564 130.434C53.6246 129.995 53.403 129.589 53.1057 129.24C52.8084 128.892 52.4419 128.609 52.0294 128.409C51.617 128.21 51.1676 128.099 50.7098 128.082L0.587899 126.29L1.73502 134.248Z" fill="#455A64"/>
</svg>
