<svg width="34" height="28" viewBox="0 0 34 28" fill="none" xmlns="http://www.w3.org/2000/svg">
<path d="M27.8325 1.29525e-05L0 8.90927L6.00587 27.6716L33.8384 18.7623L27.8325 1.29525e-05Z" fill="#FED36A"/>
<path d="M27.9977 0.181915C27.9469 0.299718 27.8855 0.412679 27.8143 0.519421C27.6749 0.754209 27.4915 1.06237 27.2567 1.4439L25.1656 4.83364L18.1587 15.9787L18.1 16.0667H17.9973L17.7551 15.9714L5.28206 11.1876L1.51812 9.72015L0.498267 9.30927C0.376269 9.26614 0.258404 9.21211 0.146089 9.14786C0.27162 9.17269 0.39447 9.20955 0.512944 9.25791L1.55481 9.62477L5.34809 11.0262L17.8212 15.7439L18.0706 15.832L17.9092 15.8907L24.9895 4.78228C25.892 3.38823 26.6257 2.25098 27.154 1.4439L27.7483 0.541432C27.8203 0.414265 27.9038 0.29393 27.9977 0.181915Z" fill="#263238"/>
<path d="M6.14784 27.8575C6.08181 27.8575 7.35113 24.5851 8.97996 20.6157C10.6088 16.6464 11.9955 13.4474 12.0615 13.4767C12.1276 13.5061 10.8656 16.7491 9.22942 20.7185C7.59325 24.6878 6.23589 27.8868 6.14784 27.8575Z" fill="#263238"/>
<path d="M21.2623 10.2777C21.3063 10.2191 24.1971 12.112 27.7043 14.5039C31.2114 16.8958 34.0435 18.9062 33.9995 18.9062C33.9555 18.9062 31.0646 17.0792 27.5575 14.6874C24.0504 12.2955 21.2183 10.3438 21.2623 10.2777Z" fill="#263238"/>
</svg>
