<svg width="322" height="313" viewBox="0 0 322 313" fill="none" xmlns="http://www.w3.org/2000/svg">
<path d="M307.626 1.77477V59.7118H224.413L221.414 2.17552L307.626 1.77477Z" fill="#E0E0E0"/>
<path d="M221.414 2.17551V59.5901L304.627 59.5901V2.17551L221.414 2.17551Z" fill="white"/>
<path d="M305.028 59.9837H221.021V1.78191H305.028V59.9837ZM221.808 59.1965H304.234V2.5691H221.808V59.1965Z" fill="#E0E0E0"/>
<path d="M295.617 9.31027H230.431V52.4553H295.617V9.31027Z" fill="white"/>
<path d="M295.617 9.31028H295.295H294.372H290.794L277.362 9.36038L230.438 9.45341L230.624 9.26735C230.624 22.4492 230.624 37.0551 230.624 52.4052L230.424 52.1977L295.61 52.2406L295.446 52.4052C295.481 39.2735 295.51 28.5105 295.532 21.0108C295.532 17.268 295.567 14.3411 295.575 12.3302C295.575 11.3427 295.575 10.5841 295.575 10.0545C295.575 9.53213 295.575 9.26019 295.575 9.26019C295.575 9.26019 295.575 9.51066 295.575 10.0188C295.575 10.5268 295.575 11.2926 295.575 12.2658C295.575 14.2696 295.575 17.1822 295.617 20.9106C295.617 28.4318 295.668 39.2306 295.703 52.3981V52.5627H295.539L230.352 52.6056H230.145V52.3981C230.145 37.0479 230.145 22.442 230.145 9.26019V9.07413H230.338L277.519 9.21725L290.909 9.26735H294.451H295.353L295.617 9.31028Z" fill="#E0E0E0"/>
<path d="M221.414 2.01806C221.928 2.26554 222.408 2.57562 222.846 2.94121C223.697 3.55665 224.856 4.42971 226.109 5.43159C227.361 6.43346 228.463 7.37809 229.236 8.09371C229.685 8.44619 230.087 8.85508 230.431 9.31028C228.845 8.19519 227.317 7.00097 225.851 5.73215C224.297 4.58656 222.815 3.34617 221.414 2.01806Z" fill="#E0E0E0"/>
<path d="M304.634 2.1755C303.264 3.5193 301.8 4.76516 300.255 5.9039C298.79 7.14638 297.241 8.28463 295.617 9.31028C296.987 7.96456 298.45 6.71858 299.997 5.58187C301.461 4.3394 303.011 3.20115 304.634 2.1755Z" fill="#E0E0E0"/>
<path d="M304.563 59.5972L295.26 52.076L304.563 59.5972Z" fill="white"/>
<path d="M295.288 52.076C296.956 53.16 298.548 54.3554 300.054 55.6541C301.645 56.8564 303.152 58.1667 304.563 59.5758C302.895 58.4918 301.303 57.2964 299.797 55.9977C298.206 54.7954 296.699 53.4851 295.288 52.076Z" fill="#E0E0E0"/>
<path d="M221.414 59.5901C222.77 58.2572 224.219 57.0232 225.751 55.8975C227.196 54.6653 228.729 53.5412 230.338 52.534C228.983 53.8654 227.534 55.0971 226.001 56.2195C224.556 57.4524 223.023 58.5789 221.414 59.5901Z" fill="#E0E0E0"/>
<path d="M243.663 22.7497V37.1982H284.683V22.7497H243.663Z" fill="#E0E0E0"/>
<path d="M247.234 312.277H321.015V98.1265H247.234L247.234 312.277Z" fill="#3A3E47"/>
<path d="M207.631 312.277H288.411V98.1265H207.631V312.277Z" fill="#F5F5F5"/>
<path d="M257.224 262.305H235.641C235.233 262.305 234.842 262.143 234.553 261.855C234.264 261.566 234.102 261.175 234.102 260.767V259.486H258.763V260.767C258.763 261.175 258.601 261.566 258.312 261.855C258.024 262.143 257.632 262.305 257.224 262.305Z" fill="#E0E0E0"/>
<path d="M211.202 259.486C211.202 259.486 211.202 259.743 211.202 260.258C211.202 260.774 211.202 261.554 211.202 262.556C211.202 264.595 211.202 267.565 211.159 271.394C211.159 279.087 211.109 290.15 211.074 303.697V303.861H211.238L283.223 303.904H283.466V303.697C283.466 288.053 283.466 273.133 283.466 259.55V259.364H283.244L231.304 259.407L216.484 259.443H212.555H211.546H211.217H211.574H212.598H216.562L231.433 259.507L283.244 259.65L283.051 259.457C283.051 273.054 283.051 287.96 283.051 303.604L283.259 303.403H283.216L211.231 303.446L211.388 303.604C211.353 290.1 211.324 279.065 211.303 271.401C211.303 267.565 211.303 264.574 211.267 262.527C211.267 261.511 211.267 260.738 211.267 260.201C211.267 259.664 211.202 259.486 211.202 259.486Z" fill="#E0E0E0"/>
<path d="M235.076 276.081H256.509V270.291H235.076V276.081Z" fill="#E0E0E0"/>
<path d="M258.205 210.78H236.628C236.22 210.78 235.829 210.618 235.541 210.33C235.252 210.041 235.09 209.65 235.09 209.242V207.961H259.743V209.242C259.743 209.65 259.581 210.041 259.293 210.33C259.004 210.618 258.613 210.78 258.205 210.78Z" fill="#E0E0E0"/>
<path d="M211.403 207.953C211.403 207.953 211.403 208.211 211.403 208.726C211.403 209.242 211.403 210.029 211.403 211.023C211.403 213.063 211.403 216.033 211.36 219.861C211.36 227.554 211.31 238.618 211.274 252.172V252.329H211.439L283.423 252.372H283.667V252.172C283.667 236.521 283.667 221.6 283.667 208.025V207.832H283.48L231.54 207.875L216.72 207.918H212.791H211.782H211.453H211.811H212.834H216.799L231.669 207.989L283.48 208.125L283.287 207.939C283.287 221.536 283.287 236.435 283.287 252.086L283.495 251.878H283.452L211.467 251.921L211.625 252.086C211.589 238.575 211.56 227.547 211.539 219.883C211.539 216.047 211.539 213.056 211.539 211.009C211.539 210 211.539 209.22 211.539 208.683C211.539 208.147 211.403 207.953 211.403 207.953Z" fill="#E0E0E0"/>
<path d="M236.693 224.205H258.126V218.416H236.693V224.205Z" fill="#E0E0E0"/>
<path d="M257.267 106.793H235.684C235.276 106.793 234.884 106.631 234.596 106.342C234.307 106.054 234.145 105.662 234.145 105.254V103.973H258.806V105.254C258.806 105.456 258.766 105.656 258.689 105.843C258.611 106.03 258.498 106.199 258.355 106.342C258.212 106.485 258.043 106.598 257.856 106.676C257.669 106.753 257.469 106.793 257.267 106.793Z" fill="#E0E0E0"/>
<path d="M211.238 103.966C211.238 103.966 211.238 104.224 211.238 104.739C211.238 105.254 211.238 106.041 211.238 107.036C211.238 109.076 211.238 112.045 211.202 115.874C211.202 123.567 211.152 134.631 211.116 148.184V148.342H211.274L283.266 148.392H283.509V148.184C283.509 132.534 283.509 117.613 283.509 104.038V103.844H283.244L231.311 103.887L216.484 103.93H212.555H211.553H211.217C211.336 103.936 211.455 103.936 211.574 103.93H212.598H216.57L231.433 103.995L283.244 104.131L283.051 103.945C283.051 117.541 283.051 132.441 283.051 148.091L283.259 147.884L211.267 147.927L211.431 148.091C211.396 134.58 211.367 123.553 211.345 115.888C211.345 112.053 211.31 109.061 211.303 107.015C211.303 106.006 211.303 105.225 211.303 104.689C211.303 104.152 211.238 103.966 211.238 103.966Z" fill="#E0E0E0"/>
<path d="M236.142 119.18H257.575V113.391H236.142V119.18Z" fill="#E0E0E0"/>
<path d="M257.267 158.769H235.684C235.276 158.769 234.884 158.606 234.596 158.318C234.307 158.029 234.145 157.638 234.145 157.23V155.906H258.806V157.187C258.811 157.393 258.776 157.597 258.701 157.789C258.626 157.981 258.514 158.155 258.371 158.303C258.227 158.45 258.056 158.567 257.866 158.647C257.676 158.727 257.473 158.769 257.267 158.769Z" fill="#E0E0E0"/>
<path d="M211.238 155.92C211.238 155.92 211.238 156.178 211.238 156.693C211.238 157.208 211.238 157.989 211.238 158.99C211.238 161.03 211.238 164 211.202 167.828C211.202 175.521 211.152 186.585 211.116 200.132V200.289H211.274L283.266 200.332H283.509V200.124C283.509 184.481 283.509 169.56 283.509 155.978V155.792H283.244L231.311 155.834H216.484H212.555H211.553H211.217H211.574H212.598H216.57L231.433 155.899L283.244 156.042L283.051 155.849C283.051 169.446 283.051 184.352 283.051 199.996L283.259 199.795L211.267 199.838L211.431 199.996C211.396 186.492 211.367 175.457 211.345 167.793C211.345 163.957 211.31 160.966 211.303 158.919C211.303 157.903 211.303 157.13 211.303 156.593C211.303 156.056 211.238 155.92 211.238 155.92Z" fill="#E0E0E0"/>
<path d="M236.142 171.142H257.575V165.352H236.142V171.142Z" fill="#E0E0E0"/>
<path d="M94.0546 0.329196H16.7027V69.5301H94.0546V0.329196Z" fill="#FAFAFA"/>
<path d="M94.0546 69.5301C94.0546 69.5301 94.0546 69.0864 94.0546 68.242C94.0546 67.3976 94.0546 66.1524 94.0546 64.5351C94.0546 61.2861 94.0546 56.5415 94.0045 50.4873C94.0045 38.4004 93.9544 21.1467 93.9186 0.32919L94.0903 0.500938H16.7456L16.9531 0.293406C16.9531 25.4691 16.9531 49.1563 16.9531 69.4943L16.7671 69.3083L72.7146 69.4013L88.4942 69.4514H92.6734H93.7468H94.119H93.7683H92.7092H88.5729L72.8291 69.4943L16.7671 69.5874H16.5882V69.4085C16.5882 49.0704 16.5882 25.3832 16.5882 0.207532V0H16.8029H94.1476H94.3265V0.178906C94.2836 21.0179 94.2549 38.3289 94.2335 50.4516C94.2335 56.4843 94.1977 61.1859 94.1905 64.4563C94.1905 66.0593 94.1905 67.3188 94.1905 68.1346C94.1905 68.9505 94.0546 69.5301 94.0546 69.5301Z" fill="#E0E0E0"/>
<path d="M46.3725 12.6236C46.3725 12.7381 42.3006 12.8312 37.2769 12.8312C32.2532 12.8312 28.1885 12.7381 28.1885 12.6236C28.1885 12.5091 32.2532 12.4161 37.2769 12.4161C42.3006 12.4161 46.3725 12.5091 46.3725 12.6236Z" fill="#E0E0E0"/>
<path d="M79.141 17.8048C79.141 17.9193 67.9557 18.0123 54.1585 18.0123C40.3612 18.0123 29.1975 17.9336 29.1975 17.8048C29.1975 17.6759 40.3827 17.5972 54.18 17.5972C67.9772 17.5972 79.141 17.7046 79.141 17.8048Z" fill="#E0E0E0"/>
<path d="M31.5662 26.6212H28.3101V29.8773H31.5662V26.6212Z" fill="#E0E0E0"/>
<path d="M39.5884 26.6212H36.3323V29.8773H39.5884V26.6212Z" fill="#E0E0E0"/>
<path d="M47.7608 26.471H44.5047V29.7271H47.7608V26.471Z" fill="#E0E0E0"/>
<path d="M55.6327 26.6212H52.3766V29.8773H55.6327V26.6212Z" fill="#E0E0E0"/>
<path d="M63.6548 26.6212H60.3987V29.8773H63.6548V26.6212Z" fill="#E0E0E0"/>
<path d="M71.677 26.6212H68.4209V29.8773H71.677V26.6212Z" fill="#E0E0E0"/>
<path d="M79.6991 26.6212H76.443V29.8773H79.6991V26.6212Z" fill="#EBEBEB"/>
<path d="M31.5662 33.5485H28.3101V36.8046H31.5662V33.5485Z" fill="#EBEBEB"/>
<path d="M39.5884 33.5485H36.3323V36.8046H39.5884V33.5485Z" fill="#E0E0E0"/>
<path d="M47.6105 33.5485H44.3544V36.8046H47.6105V33.5485Z" fill="#EBEBEB"/>
<path d="M55.6327 33.5485H52.3766V36.8046H55.6327V33.5485Z" fill="#E0E0E0"/>
<path d="M63.6548 33.5485H60.3987V36.8046H63.6548V33.5485Z" fill="#E0E0E0"/>
<path d="M71.8201 33.3982H68.564V36.6543H71.8201V33.3982Z" fill="#E0E0E0"/>
<path d="M79.6991 33.5485H76.443V36.8046H79.6991V33.5485Z" fill="#E0E0E0"/>
<path d="M31.5662 40.4757H28.3101V43.7318H31.5662V40.4757Z" fill="#E0E0E0"/>
<path d="M39.7386 40.3255H36.4825V43.5816H39.7386V40.3255Z" fill="#E0E0E0"/>
<path d="M47.6105 40.4757H44.3544V43.7318H47.6105V40.4757Z" fill="#E0E0E0"/>
<path d="M55.6327 40.4757H52.3766V43.7318H55.6327V40.4757Z" fill="#EBEBEB"/>
<path d="M63.6548 40.4757H60.3987V43.7318H63.6548V40.4757Z" fill="#E0E0E0"/>
<path d="M71.677 40.4757H68.4209V43.7318H71.677V40.4757Z" fill="#E0E0E0"/>
<path d="M79.6991 40.4757H76.443V43.7318H79.6991V40.4757Z" fill="#E0E0E0"/>
<path d="M31.5662 47.403H28.3101V50.6591H31.5662V47.403Z" fill="#E0E0E0"/>
<path d="M39.5884 47.403H36.3323V50.6591H39.5884V47.403Z" fill="#E0E0E0"/>
<path d="M47.6105 47.403H44.3544V50.6591H47.6105V47.403Z" fill="#E0E0E0"/>
<path d="M55.783 47.2599H52.5269V50.516H55.783V47.2599Z" fill="#E0E0E0"/>
<path d="M63.6548 47.403H60.3987V50.6591H63.6548V47.403Z" fill="#E0E0E0"/>
<path d="M71.677 47.403H68.4209V50.6591H71.677V47.403Z" fill="#EBEBEB"/>
<path d="M79.6991 47.403H76.443V50.6591H79.6991V47.403Z" fill="#E0E0E0"/>
<path d="M31.5662 54.3302H28.3101V57.5863H31.5662V54.3302Z" fill="#E0E0E0"/>
<path d="M39.5884 54.3302H36.3323V57.5863H39.5884V54.3302Z" fill="#EBEBEB"/>
<path d="M47.6105 54.3302H44.3544V57.5863H47.6105V54.3302Z" fill="#E0E0E0"/>
<path d="M55.6327 54.3302H52.3766V57.5863H55.6327V54.3302Z" fill="#E0E0E0"/>
<path d="M63.6548 54.3302H60.3987V57.5863H63.6548V54.3302Z" fill="#E0E0E0"/>
<path d="M71.8201 54.1871H68.564V57.4432H71.8201V54.1871Z" fill="#E0E0E0"/>
<path d="M79.6991 54.3302H76.443V57.5863H79.6991V54.3302Z" fill="#E0E0E0"/>
<path d="M159.075 103.365L132.399 113.408L139.169 131.391L165.845 121.348L159.075 103.365Z" fill="#EBEBEB"/>
<path d="M159.241 103.565C159.202 103.683 159.149 103.796 159.083 103.902L158.59 104.832C158.132 105.655 157.495 106.814 156.715 108.231C155.097 111.094 152.879 115.058 150.431 119.431L150.381 119.524H150.274L150.031 119.445L137.665 115.387L133.922 114.128L132.913 113.777C132.791 113.742 132.674 113.694 132.562 113.634C132.686 113.657 132.808 113.688 132.927 113.727L133.958 114.035L137.722 115.216L150.138 119.166L150.381 119.245L150.224 119.309C152.707 114.951 154.94 111.015 156.579 108.145L158.518 104.782L159.062 103.873C159.112 103.765 159.172 103.662 159.241 103.565Z" fill="#E0E0E0"/>
<path d="M139.332 131.589C139.268 131.589 140.341 128.347 141.744 124.397C143.146 120.447 144.327 117.241 144.392 117.291C144.456 117.341 143.383 120.54 141.987 124.447C140.592 128.354 139.404 131.589 139.332 131.589Z" fill="#E0E0E0"/>
<path d="M153.179 113.734C153.215 113.67 156.121 115.373 159.663 117.527C163.205 119.681 166.046 121.484 166.011 121.549C165.975 121.613 163.069 119.91 159.527 117.749C155.985 115.588 153.144 113.792 153.179 113.734Z" fill="#E0E0E0"/>
<path d="M193.619 46.6087C194.301 46.1952 195.035 45.875 195.802 45.6569L196.253 43.51L199.903 43.4456L200.432 45.5925C201.206 45.7814 201.95 46.0751 202.643 46.4655L204.49 45.2561L207.116 47.7894L205.971 49.6787C206.384 50.3479 206.704 51.0701 206.923 51.8256L209.07 52.2693L209.134 55.9261L206.987 56.4485C206.797 57.2225 206.505 57.9683 206.121 58.6669L207.331 60.5061L204.79 63.1324L202.908 61.9946C202.225 62.403 201.491 62.7205 200.726 62.9392L200.275 65.0861L196.625 65.1505L196.096 63.0036C195.323 62.8116 194.58 62.518 193.884 62.1306L192.038 63.34L189.412 60.7995L190.557 58.9174C190.142 58.2364 189.822 57.5021 189.605 56.7347L187.458 56.2839L187.394 52.6342L189.54 52.1047C189.73 51.3325 190.021 50.5889 190.406 49.8934L189.197 48.0471L191.737 45.4207L193.619 46.5657V46.6087ZM195.566 51.4678C195.026 52.025 194.663 52.7299 194.524 53.4933C194.385 54.2568 194.475 55.0443 194.784 55.7563C195.092 56.4683 195.605 57.0728 196.257 57.4932C196.91 57.9136 197.672 58.1311 198.448 58.1181C199.224 58.105 199.978 57.8621 200.616 57.42C201.254 56.9779 201.746 56.3566 202.031 55.6346C202.315 54.9126 202.379 54.1225 202.214 53.3642C202.049 52.6059 201.663 51.9135 201.105 51.3747C200.737 51.015 200.302 50.7312 199.825 50.5398C199.347 50.3483 198.836 50.2528 198.322 50.2588C197.808 50.2647 197.299 50.3721 196.827 50.5746C196.354 50.7771 195.925 51.0709 195.566 51.4391V51.4678Z" fill="#E0E0E0"/>
<path d="M195.566 51.4391C195.769 51.1904 196.011 50.9755 196.282 50.8022C196.753 50.4963 197.284 50.2942 197.84 50.2091C198.395 50.1241 198.963 50.1582 199.504 50.3091C200.045 50.46 200.548 50.7243 200.98 51.0845C201.411 51.4446 201.761 51.8924 202.007 52.398C202.361 53.1109 202.493 53.9136 202.386 54.7024C202.271 55.552 201.89 56.3435 201.298 56.9637C200.702 57.5789 199.925 57.9876 199.08 58.1302C198.682 58.1945 198.276 58.1945 197.877 58.1302C197.492 58.0821 197.115 57.976 196.761 57.8153C196.108 57.519 195.545 57.0547 195.129 56.4699C194.774 55.9582 194.543 55.3698 194.457 54.7524C194.321 53.8598 194.503 52.948 194.972 52.1762C195.135 51.9066 195.34 51.665 195.58 51.4606C195.58 51.4606 195.344 51.7182 195.044 52.2549C194.623 53.0205 194.472 53.905 194.614 54.7668C194.707 55.3559 194.938 55.9148 195.287 56.3984C195.687 56.9503 196.225 57.3872 196.847 57.665C197.181 57.8135 197.536 57.9123 197.899 57.9585C198.278 58.0191 198.665 58.0191 199.044 57.9585C199.842 57.8225 200.576 57.4366 201.141 56.8564C201.701 56.2665 202.061 55.5155 202.171 54.7095C202.261 53.9751 202.139 53.2303 201.821 52.5626C201.524 51.9473 201.069 51.4214 200.504 51.0384C200.008 50.708 199.442 50.4995 198.851 50.4301C197.986 50.3182 197.109 50.4996 196.36 50.9453C195.816 51.2244 195.587 51.4892 195.566 51.4391Z" fill="#E0E0E0"/>
<path d="M193.619 46.6087L193.498 46.5443L193.14 46.3367L191.709 45.4923H191.752L189.233 48.1401V48.0685L190.449 49.9077C190.067 50.6006 189.781 51.3421 189.598 52.1118V52.1547H189.555L187.408 52.6915L187.465 52.6127C187.465 53.7577 187.515 54.9815 187.537 56.2624L187.472 56.1766L189.619 56.6202H189.669V56.6703C189.888 57.4246 190.205 58.1466 190.614 58.8172V58.8673V58.9174L189.497 60.8997V60.7709L192.131 63.3042H192.002L193.841 62.0876L193.899 62.0518L193.956 62.0876C194.645 62.4695 195.381 62.7583 196.146 62.9464H196.21V63.0108L196.732 65.1577L196.625 65.0789L200.275 65.0145L200.167 65.1004C200.311 64.3848 200.468 63.6691 200.618 62.9535V62.8891H200.683C201.438 62.6774 202.161 62.3619 202.83 61.9517H202.894H202.951L204.833 63.0966H204.697L207.231 60.4703V60.6063C206.823 59.9837 206.415 59.3683 206.021 58.76L205.985 58.7027V58.6455C206.37 57.9574 206.662 57.2209 206.851 56.4557V56.3912H206.916L209.063 55.8688L208.984 55.9762C208.984 54.731 208.962 53.5144 208.92 52.3265L209.005 52.4267L206.859 51.9687H206.801V51.9043C206.588 51.1504 206.275 50.4284 205.871 49.7574V49.7073V49.6572L207.016 47.768V47.8825L204.397 45.342H204.504L202.658 46.5443H202.615H202.572C201.881 46.1601 201.142 45.8689 200.375 45.6783H200.332V45.6354C200.146 44.8554 199.974 44.1541 199.81 43.4885L199.881 43.5386L196.224 43.5816H196.274C196.088 44.4403 195.938 45.1488 195.809 45.7284C195.233 45.8855 194.674 46.1013 194.142 46.3725L193.748 46.5729L193.612 46.6444C193.649 46.6106 193.69 46.5818 193.734 46.5586L194.12 46.3367C194.651 46.0537 195.21 45.8258 195.788 45.6569C195.902 45.0701 196.045 44.3616 196.217 43.51V43.4671H196.26L199.91 43.3883H199.967V43.4384C200.132 44.104 200.311 44.8053 200.504 45.5853L200.447 45.5352C201.229 45.7248 201.982 46.0184 202.686 46.4083H202.601L204.447 45.1989L204.504 45.1559L204.554 45.206L207.181 47.7393L207.238 47.7894L207.195 47.8538L206.057 49.7431V49.6429C206.476 50.3305 206.798 51.072 207.016 51.847L206.944 51.7755L209.091 52.2192H209.17V52.2979C209.17 53.4858 209.22 54.7024 209.242 55.9476V56.0334H209.156L207.009 56.563L207.088 56.4843C206.895 57.2667 206.599 58.02 206.207 58.7242V58.5954L207.424 60.4417L207.467 60.5132L207.41 60.5777L204.869 63.204L204.812 63.2684L204.733 63.2255L202.844 62.0805H202.958C202.27 62.4984 201.529 62.821 200.754 63.0394L200.833 62.9535C200.676 63.6691 200.525 64.4349 200.382 65.1004V65.1934H200.296L196.647 65.2507H196.561V65.1648C196.375 64.4492 196.196 63.6906 196.031 63.0179L196.11 63.0966C195.328 62.9015 194.575 62.6056 193.87 62.2164H193.984L192.138 63.4258L192.067 63.4688L192.009 63.4115L189.383 60.8711L189.326 60.821L189.369 60.7494C189.769 60.091 190.156 59.447 190.514 58.8673V58.9675C190.098 58.2767 189.778 57.5329 189.562 56.7562L189.626 56.8206L187.479 56.3698H187.408V56.2982C187.408 55.0172 187.365 53.8007 187.351 52.6485V52.5841H187.408L189.555 52.0617L189.497 52.1547C189.69 51.3746 189.986 50.6237 190.378 49.922V49.9936C189.941 49.328 189.54 48.7054 189.175 48.1401L191.723 45.5281L193.154 46.3868L193.505 46.6158C193.584 46.5729 193.619 46.6015 193.619 46.6087Z" fill="#E0E0E0"/>
<path d="M16.6741 304.999C15.3645 303.883 12.4519 300.326 14.6989 296.197C15.5219 294.687 17.2752 293.936 18.8567 293.27C20.4382 292.605 22.1056 292.025 23.4152 290.909C25.8913 288.805 26.5711 285.312 28.2099 282.507C30.0992 279.287 33.6129 276.868 37.327 277.04C41.6207 277.233 45.1273 280.711 46.7375 284.668C48.3476 288.626 48.4049 293.027 48.4335 297.306C48.4335 299.675 48.3476 302.316 46.6086 303.94C45.0128 305.414 42.6011 305.429 40.4328 305.371L17.1822 304.656" fill="#F5F5F5"/>
<path d="M61.1358 241.08H0L11.0135 306.745C11.2397 308.114 11.8502 309.39 12.7738 310.425C13.6975 311.461 14.8962 312.212 16.2304 312.592L16.4451 312.656C16.624 312.699 16.8029 312.764 16.9889 312.792C17.399 312.876 17.8157 312.924 18.2341 312.936V313L18.5347 312.95H45.7928C46.2948 312.95 46.7956 312.902 47.2885 312.807C48.883 312.559 50.3522 311.795 51.4704 310.631C52.5886 309.468 53.2941 307.969 53.4786 306.366L58.7814 261.117L59.0247 259.314L61.1287 241.423L61.1358 241.08ZM49.6071 282.958H43.3311L43.9608 263.901H51.2316L49.6071 282.958ZM51.8399 263.901H57.8225L55.5826 282.958H50.2154L51.8399 263.901ZM33.9492 304.09L33.57 287.531H42.5725L42.0215 304.09H33.9492ZM24.1452 287.531H32.9259L33.3052 304.09H25.4333L24.1452 287.531ZM24.8608 304.09H17.4684C16.7528 299.618 15.8582 293.807 14.8707 287.531H23.5369L24.8608 304.09ZM23.8303 282.958L22.349 263.901H32.382L32.8186 282.958H23.8303ZM33.4626 282.958L33.0261 263.901H43.3526L42.7228 282.958H33.4626ZM32.9187 259.342L32.5108 241.695H44.0968L43.51 259.328L32.9187 259.342ZM32.3105 259.342H21.9554L20.61 241.681H31.8739L32.3105 259.342ZM21.3256 259.328H10.4267C10.0402 256.895 9.67525 254.584 9.3389 252.508C8.20106 245.352 7.77168 242.69 7.53553 241.681H19.9731L21.3256 259.328ZM21.6834 263.901L23.1648 282.958H14.1694C13.8617 281.026 13.5539 279.072 13.2462 277.111L11.1637 263.901H21.6834ZM13.5396 282.958H7.63572L4.44403 263.901H10.534C11.4643 269.791 12.502 276.346 13.5396 282.958ZM14.2552 287.531C15.1569 293.256 16.0372 298.909 16.853 304.09H11.1852L8.40143 287.531H14.2552ZM42.6298 304.09L43.1808 287.531H49.235L47.8037 304.09H42.6298ZM44.1111 259.328L44.6979 241.681H53.128L51.6252 259.328H44.1111ZM6.95587 241.681C7.19919 242.955 8.31556 249.903 9.81837 259.328H3.67831L0.715625 241.681H6.95587ZM53.1351 304.09H48.4049L49.8361 287.531H55.0888L53.1351 304.09ZM58.3878 259.328H52.2335L53.7434 241.681H60.456L58.3878 259.328Z" fill="#E0E0E0"/>
</svg>
