<svg width="70" height="54" viewBox="0 0 70 54" fill="none" xmlns="http://www.w3.org/2000/svg">
<path d="M34.3338 53.8288C49.1132 53.8288 61.0942 41.8478 61.0942 27.0684C61.0942 12.2891 49.1132 0.308078 34.3338 0.308078C19.5545 0.308078 7.57348 12.2891 7.57348 27.0684C7.57348 41.8478 19.5545 53.8288 34.3338 53.8288Z" fill="white"/>
<path d="M61.0942 27.0685C61.0942 27.0685 61.0942 26.9252 61.0512 26.6386C61.0082 26.352 61.0011 25.9221 60.9653 25.3632C60.9653 25.0838 60.9294 24.7757 60.9079 24.4318C60.8864 24.0879 60.8004 23.7153 60.7431 23.3141C60.6232 22.3824 60.4364 21.4606 60.1843 20.5557C59.5592 18.0529 58.5592 15.6591 57.2181 13.4554C55.2752 10.2182 52.6688 7.42912 49.5704 5.27173C46.472 3.11435 42.9519 1.63757 39.2417 0.938587C38.1319 0.732261 37.0091 0.602986 35.8814 0.55169C35.3083 0.55169 34.7279 0.472876 34.1476 0.480041L32.385 0.573183C32.0913 0.573183 31.7904 0.573185 31.4966 0.630503L30.6082 0.766632C30.0207 0.866939 29.4188 0.938586 28.8241 1.06039C26.3849 1.60827 24.0271 2.47047 21.8099 3.62537C21.251 3.92629 20.7136 4.28453 20.1548 4.6141C19.8825 4.78606 19.5959 4.93652 19.3308 5.12997L18.5499 5.71748C16.3806 7.29287 14.4833 9.21202 12.9327 11.3991L12.3237 12.2159L11.7864 13.09L11.249 13.9355C11.0596 14.2234 10.8919 14.5252 10.7475 14.8382C10.4537 15.4615 10.1528 16.0849 9.84471 16.7154L9.12823 18.6785C8.25385 21.3909 7.79018 24.2189 7.7526 27.0685C7.79025 29.9157 8.25393 32.7413 9.12823 35.4512C9.36467 36.1104 9.60827 36.7695 9.84471 37.4215C10.0811 38.0735 10.4466 38.6754 10.7475 39.2915C10.8902 39.6077 11.0579 39.9119 11.249 40.2014L11.7864 41.0827L12.3166 41.9568L12.9327 42.7736C13.7274 43.8594 14.5964 44.8888 15.5335 45.8544C16.4812 46.7751 17.4889 47.632 18.5499 48.4194L19.3308 49.0069C19.5959 49.2004 19.8825 49.3508 20.1548 49.5228C20.7136 49.8524 21.251 50.2393 21.8099 50.5115C24.0271 51.6664 26.3849 52.5286 28.8241 53.0765C29.4188 53.2055 30.0207 53.27 30.6153 53.3703L31.4966 53.5064C31.7975 53.5064 32.0913 53.5064 32.385 53.5637L34.1762 53.6712C34.7566 53.6712 35.3369 53.621 35.9101 53.6067C37.0379 53.553 38.1607 53.4214 39.2704 53.2126C42.9815 52.5163 46.5027 51.0405 49.6015 48.8829C52.7002 46.7253 55.306 43.9348 57.2467 40.6958C58.5765 38.4949 59.5668 36.1061 60.1843 33.6099C60.4364 32.705 60.6232 31.7831 60.7431 30.8514C60.8004 30.4502 60.8721 30.0776 60.9079 29.7337C60.9437 29.3898 60.9509 29.0817 60.9653 28.8023C61.0035 28.2482 61.0321 27.8255 61.0512 27.5342C61.0512 27.2476 61.0942 27.0971 61.0942 27.0971C61.0942 27.0971 61.0942 27.2476 61.0942 27.5342C61.0942 27.8207 61.0942 28.2506 61.0512 28.8023C61.0512 29.0889 61.0512 29.397 61.0082 29.7481C60.9653 30.0991 60.9151 30.4645 60.8578 30.8658C60.7474 31.7921 60.5702 32.7092 60.3276 33.6099C59.7204 36.1331 58.7323 38.5491 57.3972 40.7746C55.456 44.0582 52.8382 46.8911 49.7178 49.085C46.5974 51.279 43.0458 52.7837 39.299 53.4992C38.1774 53.7099 37.0428 53.844 35.9029 53.9005C35.3226 53.9005 34.7351 53.9793 34.1476 53.9721L32.3635 53.8861C32.0626 53.8861 31.7617 53.8861 31.4608 53.8288L30.5938 53.6712C29.992 53.5709 29.383 53.5064 28.7812 53.3774C27.5645 53.111 26.3676 52.7615 25.1988 52.3314C23.9926 51.901 22.8172 51.3887 21.6809 50.7981C21.1149 50.49 20.5632 50.1318 20.0043 49.7951C19.7249 49.6159 19.4312 49.4655 19.1661 49.272L18.3779 48.6774C17.3027 47.8805 16.2807 47.0141 15.3186 46.0837C14.3672 45.1039 13.4839 44.0602 12.6748 42.9599L12.0515 42.1359L11.5069 41.2475L10.9696 40.3519C10.775 40.0608 10.6049 39.754 10.4609 39.4348C10.16 38.8043 9.85188 38.1738 9.55096 37.5362L8.83448 35.5372C7.95127 32.7896 7.48279 29.9256 7.44452 27.0398C7.46656 24.1635 7.91815 21.3067 8.78433 18.5639L9.5008 16.5721L10.4179 14.6663C10.561 14.348 10.7287 14.0414 10.9194 13.7492L11.4639 12.8607L12.0013 11.9723L12.6246 11.1412C13.4356 10.0447 14.3188 9.00347 15.2684 8.02453C16.2305 7.09416 17.2525 6.22776 18.3278 5.43089L19.1159 4.83621C19.381 4.64276 19.6748 4.49231 19.9542 4.31319C20.513 3.98361 21.0647 3.59671 21.6307 3.31729C23.8785 2.15246 26.2675 1.28309 28.7382 0.730809C29.34 0.609008 29.949 0.537361 30.5509 0.437054L31.4465 0.300922C31.7474 0.300922 32.0483 0.300923 32.3492 0.243605L34.1332 0.157629C34.7207 0.157629 35.3011 0.207781 35.8814 0.229275C37.0234 0.288875 38.1602 0.422903 39.2847 0.630503C43.0315 1.34604 46.5831 2.85076 49.7035 5.04469C52.8239 7.23861 55.4417 10.0715 57.3829 13.3551C58.718 15.5806 59.7061 17.9966 60.3133 20.5199C60.5552 21.4325 60.73 22.3616 60.8363 23.2998C60.8936 23.7082 60.9581 24.0807 60.9867 24.4247L61.0297 25.3632C61.0297 25.9149 61.0656 26.3376 61.0727 26.6386C61.0799 26.9395 61.0942 27.0685 61.0942 27.0685Z" fill="#263238"/>
<path d="M47.0226 26.3162C46.6724 26.445 46.3132 26.5479 45.9479 26.6242L42.9602 27.3407C40.4311 27.9282 36.9203 28.7235 32.994 29.5833L32.7719 29.6334V28.5946C32.7719 24.4032 32.7719 20.6059 32.8221 17.8474C32.8221 16.5291 32.8722 15.4329 32.8866 14.5946C32.8758 14.1968 32.8998 13.7989 32.9582 13.4053C33.0121 13.7993 33.036 14.1969 33.0299 14.5946C33.0299 15.4329 33.0657 16.5291 33.0872 17.8474C33.0872 20.5987 33.1445 24.396 33.1445 28.5946V29.3755L32.9152 29.1892C36.8415 28.3366 40.3594 27.5843 42.9029 27.0398L45.9121 26.4451C46.2775 26.3679 46.6492 26.3247 47.0226 26.3162Z" fill="#263238"/>
<path d="M63.0072 38.1022C63.033 37.9528 63.0738 37.8063 63.129 37.6651C63.2078 37.3857 63.3726 36.9486 63.5159 36.4471C63.9768 34.944 64.3265 33.409 64.562 31.8545C65.3809 26.7182 64.891 21.4583 63.1377 16.5616C61.3844 11.6649 58.4243 7.28948 54.5313 3.84031C53.3647 2.79701 52.1244 1.83922 50.82 0.974407C50.3614 0.651993 49.9817 0.437051 49.7452 0.257932C49.6142 0.182291 49.4896 0.0960236 49.3727 0C49.5178 0.0433487 49.6555 0.108582 49.7811 0.193449C50.0318 0.336744 50.4259 0.530191 50.8988 0.838275C52.2453 1.66672 53.5203 2.60618 54.7104 3.64686C58.6863 7.08691 61.7048 11.4969 63.4724 16.4484C65.2401 21.3999 65.6969 26.7245 64.7984 31.9047C64.5443 33.457 64.1633 34.9858 63.6592 36.4758C63.4872 37.006 63.301 37.4072 63.2007 37.6795C63.1525 37.8273 63.0876 37.9691 63.0072 38.1022Z" fill="#263238"/>
<path d="M68.1371 24.9334C68.0798 24.9334 68.044 23.8658 67.8291 22.1606C67.542 19.9433 67.0381 17.7595 66.3245 15.6407C65.6041 13.5307 64.6753 11.4978 63.5517 9.57213C62.6776 8.08902 62.0471 7.22925 62.1188 7.19343C62.3117 7.35483 62.4806 7.54302 62.6203 7.75228C62.9141 8.13917 63.3368 8.70519 63.7953 9.42883C65.0144 11.3341 66.0006 13.3787 66.7329 15.5189C67.4705 17.6588 67.9515 19.8787 68.1658 22.1319C68.2446 22.9917 68.2661 23.6939 68.2661 24.1811C68.2628 24.437 68.2193 24.6909 68.1371 24.9334Z" fill="#263238"/>
<path d="M7.61647 11.5711C7.57373 11.714 7.51358 11.8512 7.43735 11.9795C7.30839 12.2446 7.08628 12.6171 6.85701 13.1258C4.15897 18.486 3.07033 24.5126 3.72255 30.478C4.37477 36.4433 6.73997 42.0923 10.5325 46.7429C11.5198 47.9637 12.5924 49.1129 13.7423 50.1819C14.1436 50.5688 14.4588 50.8411 14.6953 51.0417C14.8104 51.1387 14.9181 51.244 15.0177 51.357C14.8832 51.2868 14.7581 51.2002 14.6451 51.099C14.4158 50.9199 14.0648 50.662 13.6492 50.2894C12.4525 49.2551 11.343 48.124 10.3319 46.9076C6.95067 42.8803 4.66999 38.046 3.71198 32.8755C2.75396 27.705 3.15127 22.3745 4.86521 17.4032C5.37057 15.9057 6.0009 14.4533 6.74954 13.0613C7.00031 12.5598 7.24391 12.1944 7.38721 11.9436C7.45318 11.8133 7.52986 11.6887 7.61647 11.5711Z" fill="#263238"/>
<path d="M0.458877 23.7583C0.52336 23.7583 0.387224 24.8259 0.329906 26.5454C0.253875 28.7784 0.405116 31.0134 0.781289 33.2158C1.16504 35.4204 1.76994 37.5808 2.58681 39.6641C3.21014 41.2618 3.69735 42.2147 3.64003 42.2434C3.47881 42.0494 3.34391 41.835 3.23881 41.6057C3.00237 41.183 2.68712 40.5597 2.34321 39.7644C1.44367 37.6998 0.794219 35.535 0.408719 33.3161C0.0283059 31.0878 -0.0871294 28.8223 0.0648137 26.5669C0.129297 25.7 0.215279 25.005 0.294091 24.525C0.314168 24.2632 0.369599 24.0053 0.458877 23.7583Z" fill="#263238"/>
<path d="M56.4873 31.4605C55.477 31.2527 54.6603 31.0736 54.6603 31.0664C54.6603 31.0592 55.4842 31.2169 56.4944 31.4246C57.5047 31.6324 58.3214 31.8044 58.3143 31.8115C58.3071 31.8187 57.4903 31.6969 56.4873 31.4605Z" fill="#263238"/>
<path d="M53.8936 38.2311C53.0052 37.7081 52.2887 37.2782 52.2887 37.2711C52.2887 37.2639 53.0052 37.6795 53.908 38.2025C54.8107 38.7255 55.5129 39.1554 55.5057 39.1626C55.4985 39.1697 54.7749 38.7542 53.8936 38.2311Z" fill="#263238"/>
<path d="M49.2222 43.7623C48.5487 42.9742 48.0114 42.3294 48.0185 42.3294C48.0257 42.3294 48.5774 42.9527 49.2437 43.7623C49.91 44.5719 50.4546 45.1953 50.4402 45.1953C50.4259 45.1953 49.9387 44.5433 49.2222 43.7623Z" fill="#263238"/>
<path d="M43.0534 47.488C42.6736 46.5279 42.3727 45.747 42.3799 45.747C42.387 45.747 42.7023 46.5136 43.0963 47.4737C43.4904 48.4338 43.777 49.2076 43.7627 49.2147C43.7483 49.2219 43.4331 48.4409 43.0534 47.488Z" fill="#263238"/>
<path d="M35.9889 48.9998C35.9459 47.968 35.9173 47.1369 35.9244 47.1369C35.9316 47.1369 35.9817 47.968 36.0247 48.9998C36.0677 50.0315 36.1035 50.8626 36.0964 50.8626C36.0892 50.8626 36.0391 50.0315 35.9889 48.9998Z" fill="#263238"/>
<path d="M28.817 48.1328C29.1036 47.1441 29.34 46.3488 29.3543 46.3488C29.3687 46.3488 29.1394 47.1584 28.8528 48.1472C28.5662 49.1359 28.3226 49.9312 28.3083 49.9312C28.294 49.9312 28.5232 49.1216 28.817 48.1328Z" fill="#263238"/>
<path d="M22.3042 44.9947C22.8989 44.1492 23.3861 43.4757 23.4004 43.4829C23.4148 43.4901 22.9276 44.1994 22.3329 45.0162C21.7382 45.8329 21.2797 46.5064 21.2797 46.5064C21.2797 46.5064 21.7095 45.8329 22.3042 44.9947Z" fill="#263238"/>
<path d="M17.1814 39.9077C18.0125 39.2987 18.6932 38.8186 18.7003 38.8258C18.7075 38.833 18.034 39.3273 17.1958 39.9363C16.3575 40.5453 15.684 41.0182 15.6768 41.0111C15.6697 41.0039 16.3431 40.5095 17.1814 39.9077Z" fill="#263238"/>
<path d="M13.9716 33.4307C14.9603 33.1298 15.7628 32.8934 15.7628 32.9005C15.7628 32.9077 14.9675 33.1656 13.9788 33.4666C12.99 33.7675 12.1948 33.9968 12.1948 33.9896C12.1948 33.9824 12.99 33.7317 13.9716 33.4307Z" fill="#263238"/>
<path d="M13.0474 26.266C14.0791 26.266 14.9102 26.3377 14.9102 26.352C14.9102 26.3663 14.0719 26.352 13.0474 26.3018C12.0228 26.2517 11.1774 26.223 11.1845 26.2159C11.1917 26.2087 12.0156 26.223 13.0474 26.266Z" fill="#263238"/>
<path d="M14.4946 19.18C15.4619 19.5526 16.2357 19.8535 16.2357 19.8965C16.2357 19.9395 15.4475 19.6099 14.4803 19.2445C13.5131 18.8791 12.7464 18.571 12.7464 18.5639C12.7464 18.5567 13.5346 18.8146 14.4946 19.18Z" fill="#263238"/>
<path d="M18.1702 12.9539C18.9583 13.6202 19.6031 14.1647 19.6031 14.1719C19.6031 14.1791 18.9511 13.6489 18.1702 12.9825C17.3892 12.3162 16.7372 11.7789 16.7372 11.7717C16.7372 11.7645 17.3749 12.2947 18.1702 12.9539Z" fill="#263238"/>
<path d="M23.6584 8.26812C24.1886 9.14939 24.6184 9.86586 24.6113 9.87302C24.6041 9.88019 24.1599 9.15655 23.6297 8.28245C23.0995 7.40835 22.6696 6.68471 22.6768 6.67754C22.6839 6.67038 23.1282 7.38686 23.6584 8.26812Z" fill="#263238"/>
<path d="M30.3717 5.60284C30.5867 6.61307 30.7586 7.42985 30.7515 7.42985C30.7443 7.42985 30.558 6.62023 30.3359 5.61C30.1138 4.59977 29.949 3.79015 29.9633 3.78299C29.9777 3.77582 30.1568 4.59977 30.3717 5.60284Z" fill="#263238"/>
<path d="M37.5867 5.27325C37.4649 6.29781 37.3574 7.12175 37.3502 7.12175C37.343 7.12175 37.429 6.29064 37.558 5.26608C37.687 4.24152 37.7872 3.41757 37.7944 3.41757C37.8016 3.41757 37.7156 4.23436 37.5867 5.27325Z" fill="#263238"/>
<path d="M44.5293 7.30089C44.0851 8.22515 43.7125 8.97745 43.7053 8.97028C43.6982 8.96312 44.0492 8.21082 44.4935 7.2794C44.9377 6.34798 45.3102 5.60284 45.3246 5.61001C45.3389 5.61717 44.9735 6.3838 44.5293 7.30089Z" fill="#263238"/>
<path d="M50.4259 11.4708C49.7094 12.1873 49.1076 12.7891 49.1004 12.7819C49.0932 12.7748 49.6807 12.1729 50.4044 11.4421C51.128 10.7113 51.7227 10.1238 51.7299 10.131C51.737 10.1381 51.1567 10.74 50.4259 11.4708Z" fill="#263238"/>
<path d="M54.6531 17.3244C53.7288 17.7829 52.9765 18.1483 52.9765 18.1412C52.9765 18.134 53.693 17.7543 54.6388 17.2957C55.5845 16.8372 56.3153 16.4718 56.3153 16.4789C56.3153 16.4861 55.5773 16.8658 54.6531 17.3244Z" fill="#263238"/>
<path d="M56.7595 24.2384L54.9039 24.4605C54.9039 24.4605 55.7278 24.3315 56.7524 24.2026C57.7769 24.0736 58.6009 23.9661 58.6009 23.9733C58.6009 23.9805 57.7769 24.1022 56.7595 24.2384Z" fill="#263238"/>
<path d="M70 21.7665C69.6026 22.9763 69.0891 24.1448 68.4667 25.2558L68.4237 25.3346L68.2805 25.6283L68.1013 25.3561C67.3805 24.3499 66.7613 23.2747 66.2528 22.1463C67.0793 23.0709 67.8135 24.0739 68.4452 25.1411H68.1228L68.1658 25.0552C68.6693 23.9022 69.2836 22.8008 70 21.7665Z" fill="#263238"/>
</svg>
